<svg id="svg" version="1.1" xmlns="http://www.w3.org/2000/svg" xmlns:xlink="http://www.w3.org/1999/xlink" width="400" height="394.0149625935162" viewBox="0, 0, 400,394.0149625935162"><g id="svgg"><path id="path0" d="M175.641 23.130 C 170.579 23.567,167.852 24.101,166.897 24.842 C 166.680 25.010,165.495 25.439,164.264 25.795 C 163.033 26.152,161.615 26.765,161.112 27.158 C 160.609 27.551,159.762 28.008,159.229 28.175 C 158.380 28.442,156.587 29.614,152.548 32.541 C 146.073 37.234,138.799 47.364,136.154 55.369 C 134.151 61.433,134.223 60.844,134.223 71.133 C 134.223 79.153,134.342 81.352,134.863 82.956 C 135.215 84.039,135.795 85.813,136.152 86.897 C 138.927 95.320,145.137 103.780,152.906 109.720 C 158.023 113.632,161.961 115.499,171.034 118.313 C 171.916 118.587,180.444 118.826,194.680 118.976 L 216.946 119.212 218.719 120.144 C 226.651 124.311,228.216 132.285,222.293 138.349 C 219.016 141.704,217.631 141.984,205.320 141.778 C 199.576 141.682,193.635 141.757,192.118 141.945 C 190.601 142.133,187.705 142.448,185.683 142.644 C 170.486 144.119,151.175 154.839,139.511 168.276 C 133.693 174.979,132.122 177.772,133.892 178.269 C 136.330 178.954,220.644 178.690,224.236 177.986 C 239.372 175.021,251.934 165.254,258.909 151.029 C 261.973 144.779,263.259 138.830,263.268 130.855 C 263.276 124.331,262.997 121.773,261.953 118.818 C 261.646 117.951,261.269 116.554,261.114 115.714 C 258.655 102.382,241.867 87.137,225.419 83.298 L 220.887 82.241 199.803 82.007 C 175.239 81.735,176.892 82.061,172.801 76.681 C 170.893 74.172,171.011 67.901,173.015 65.330 C 176.698 60.601,176.676 60.607,192.315 60.258 C 199.576 60.096,206.345 59.780,207.357 59.556 C 208.369 59.332,210.994 58.965,213.190 58.739 C 215.387 58.514,218.017 57.981,219.035 57.555 C 220.053 57.130,222.039 56.493,223.448 56.141 C 224.857 55.789,226.563 55.161,227.239 54.745 C 227.914 54.330,228.704 53.990,228.994 53.990 C 229.658 53.990,235.994 50.813,238.662 49.142 C 244.351 45.579,245.682 44.612,249.619 41.182 C 253.825 37.518,256.416 34.829,259.923 30.487 C 265.632 23.419,265.611 23.097,259.424 22.960 C 242.777 22.592,180.405 22.719,175.641 23.130 M247.613 204.168 C 244.506 204.803,243.160 206.554,244.160 208.660 C 245.451 211.380,243.895 211.232,271.042 211.232 L 295.602 211.232 296.554 210.280 C 298.521 208.313,298.166 205.723,295.772 204.573 C 294.593 204.006,250.229 203.633,247.613 204.168 M208.366 205.349 L 206.897 206.560 206.903 231.260 C 206.906 244.845,207.039 256.158,207.198 256.398 C 208.407 258.225,211.563 258.525,213.294 256.978 L 214.581 255.828 214.581 231.178 L 214.581 206.527 213.202 205.349 C 211.436 203.839,210.197 203.839,208.366 205.349 M346.323 205.341 C 344.922 206.741,344.954 209.150,346.404 211.394 C 346.836 212.063,347.550 213.357,347.990 214.269 C 348.431 215.182,348.943 216.022,349.128 216.136 C 349.313 216.251,349.850 217.101,350.321 218.025 C 350.792 218.948,351.872 220.857,352.721 222.266 C 353.570 223.675,354.719 225.714,355.275 226.798 C 355.831 227.882,356.886 229.744,357.620 230.936 C 359.249 233.580,361.150 236.839,362.450 239.212 C 362.984 240.187,363.642 241.251,363.912 241.576 C 364.182 241.901,364.647 242.788,364.945 243.547 C 365.244 244.305,365.803 245.268,366.188 245.685 C 366.573 246.103,366.999 246.812,367.135 247.262 C 367.271 247.711,367.771 248.611,368.247 249.261 C 368.723 249.911,369.342 251.014,369.623 251.711 C 369.904 252.408,370.396 253.196,370.716 253.462 C 371.037 253.728,371.572 254.627,371.905 255.461 C 373.018 258.243,376.314 259.017,378.355 256.976 C 379.979 255.352,379.356 251.976,376.871 248.935 C 376.370 248.323,375.961 247.593,375.961 247.315 C 375.961 247.036,375.438 246.151,374.800 245.347 C 374.162 244.544,373.439 243.278,373.193 242.535 C 372.948 241.791,372.596 241.182,372.412 241.182 C 372.228 241.182,371.611 240.251,371.041 239.113 C 370.471 237.975,369.402 236.069,368.667 234.877 C 367.095 232.331,365.455 229.525,364.289 227.388 C 363.831 226.548,362.900 225.021,362.220 223.996 C 361.541 222.970,360.985 221.917,360.985 221.656 C 360.985 221.394,360.734 220.972,360.428 220.718 C 360.122 220.464,359.501 219.511,359.048 218.601 C 358.595 217.690,357.521 215.793,356.661 214.384 C 355.800 212.975,354.622 210.882,354.043 209.732 C 351.547 204.775,348.577 203.086,346.323 205.341 M95.792 205.570 C 94.985 206.596,94.975 206.916,94.975 231.401 L 94.975 256.193 95.943 257.161 C 97.338 258.557,99.456 258.305,100.776 256.586 C 101.553 255.574,101.485 207.646,100.704 206.137 C 99.694 204.182,97.118 203.885,95.792 205.570 M29.163 205.688 C 22.839 207.027,17.340 213.451,17.340 219.501 C 17.340 224.139,20.821 230.112,24.137 231.164 C 24.617 231.316,25.456 231.763,26.002 232.156 C 27.525 233.254,36.489 234.890,43.153 235.287 C 50.008 235.696,50.856 235.897,53.297 237.686 C 57.843 241.021,56.942 246.590,51.458 249.051 C 47.515 250.820,46.148 253.006,47.559 255.285 C 51.351 261.413,63.643 251.805,63.583 242.759 C 63.518 233.040,55.841 228.055,39.914 227.389 C 31.926 227.055,31.996 227.069,28.745 225.171 C 23.678 222.214,24.258 216.312,29.936 213.037 C 33.390 211.045,34.505 209.795,34.137 208.329 C 33.570 206.071,31.798 205.130,29.163 205.688 M49.401 205.580 C 45.695 206.363,46.529 210.379,50.789 212.269 C 56.766 214.920,61.084 214.305,61.084 210.803 C 61.084 208.054,53.576 204.697,49.401 205.580 M143.294 207.597 C 132.121 213.561,126.773 228.162,131.228 240.539 C 134.733 250.275,145.321 258.748,149.318 255.014 C 151.273 253.188,150.444 250.074,147.676 248.846 C 133.786 242.684,133.084 220.886,146.555 214.013 C 150.058 212.227,151.094 209.359,148.996 207.260 C 147.511 205.775,146.608 205.829,143.294 207.597 M164.926 206.584 C 161.994 208.266,162.550 211.410,166.172 213.626 C 167.004 214.135,168.724 215.312,169.994 216.241 C 173.352 218.698,175.796 218.356,176.721 215.300 C 177.771 211.833,168.159 204.730,164.926 206.584 M335.172 224.459 C 334.392 224.855,333.402 226.091,332.261 228.096 C 331.310 229.766,330.113 231.763,329.601 232.533 C 329.089 233.304,328.670 234.112,328.670 234.329 C 328.670 234.546,328.217 235.335,327.663 236.081 C 327.110 236.828,326.301 238.148,325.865 239.015 C 324.646 241.443,323.255 243.933,322.827 244.455 C 322.615 244.714,322.001 245.724,321.464 246.700 C 320.927 247.675,319.850 249.626,319.070 251.034 C 317.275 254.280,317.222 255.739,318.848 257.108 C 320.643 258.619,323.886 257.915,324.600 255.860 C 327.155 248.512,329.616 246.936,338.904 246.700 C 348.563 246.453,350.191 245.681,349.133 241.850 C 348.531 239.669,348.013 239.467,342.324 239.194 C 334.618 238.825,334.631 238.844,337.931 232.692 C 340.666 227.594,340.801 225.612,338.494 224.419 C 337.107 223.702,336.657 223.707,335.172 224.459 M268.554 225.204 L 267.586 226.171 267.586 241.129 L 267.586 256.088 268.799 257.108 C 270.388 258.445,271.705 258.405,273.134 256.976 L 274.286 255.824 274.286 240.998 L 274.286 226.171 273.318 225.204 C 272.651 224.536,271.913 224.236,270.936 224.236 C 269.959 224.236,269.221 224.536,268.554 225.204 M171.129 245.025 C 169.948 246.199,166.548 248.556,165.626 248.840 C 163.137 249.608,162.215 253.786,164.191 255.341 C 167.722 258.119,177.646 251.541,176.792 246.989 C 176.305 244.394,172.938 243.226,171.129 245.025 M20.099 248.324 C 18.547 248.944,17.339 250.292,17.346 251.399 C 17.371 255.456,30.586 259.616,33.332 256.431 C 36.055 253.273,32.467 250.122,24.507 248.682 C 23.139 248.435,21.809 248.164,21.552 248.082 C 21.294 247.999,20.640 248.108,20.099 248.324 M112.118 332.060 C 104.058 333.493,97.633 337.652,93.109 344.366 C 90.497 348.242,89.796 347.980,102.782 347.980 C 111.279 347.980,114.287 348.104,114.740 348.473 C 115.294 348.924,117.833 352.880,117.833 353.292 C 117.833 353.390,118.631 354.784,119.606 356.391 C 122.010 360.351,122.116 359.642,118.074 366.700 C 114.514 372.916,115.788 372.441,102.780 372.401 C 90.114 372.363,91.024 372.147,92.473 374.846 C 102.054 392.688,129.341 393.095,140.799 375.567 L 142.474 373.005 213.798 372.912 C 253.027 372.861,285.312 372.949,285.543 373.109 C 285.774 373.268,286.656 374.463,287.503 375.764 C 297.386 390.936,318.885 393.047,331.626 380.098 C 333.751 377.938,337.166 372.897,336.772 372.503 C 336.686 372.417,331.680 372.363,325.648 372.382 C 317.557 372.409,314.430 372.288,313.726 371.923 C 312.376 371.223,306.455 360.828,306.750 359.677 C 306.936 358.949,312.618 348.956,313.176 348.374 C 313.280 348.266,318.675 348.089,325.166 347.980 L 336.966 347.783 335.872 345.622 C 335.218 344.329,333.427 342.102,331.418 340.083 C 318.438 327.040,297.206 329.405,287.054 345.025 L 285.517 347.389 214.778 347.497 C 175.872 347.556,143.684 347.520,143.250 347.415 C 142.814 347.311,141.581 345.877,140.492 344.206 C 134.484 334.995,123.076 330.112,112.118 332.060 M282.080 357.658 C 283.113 358.381,283.349 361.744,282.421 362.514 C 282.029 362.840,263.784 362.931,213.751 362.858 L 145.616 362.759 145.498 360.290 C 145.391 358.029,145.457 357.791,146.286 357.458 C 148.055 356.748,281.061 356.944,282.080 357.658 " stroke="none" fill="#bc1d25" fill-rule="evenodd"></path><path id="path1" d="M0.000 197.044 L 0.000 394.089 200.000 394.089 L 400.000 394.089 400.000 197.044 L 400.000 0.000 200.000 0.000 L 0.000 0.000 0.000 197.044 M266.010 21.000 C 268.219 22.111,267.681 23.932,263.488 29.540 C 257.021 38.188,245.161 48.428,236.650 52.711 C 235.783 53.147,234.371 53.880,233.513 54.338 C 232.654 54.797,231.706 55.172,231.406 55.172 C 231.106 55.172,230.388 55.509,229.811 55.920 C 229.234 56.331,227.965 56.881,226.991 57.141 C 226.018 57.402,224.246 58.021,223.054 58.517 C 221.862 59.012,219.557 59.636,217.931 59.903 C 216.305 60.170,214.692 60.536,214.346 60.718 C 212.624 61.619,207.544 61.991,193.892 62.218 L 179.113 62.463 177.537 63.576 C 171.938 67.527,171.925 74.886,177.513 78.509 L 179.507 79.803 201.970 80.050 C 223.851 80.291,225.600 80.396,228.571 81.656 C 229.330 81.978,230.644 82.371,231.492 82.529 C 232.339 82.688,234.005 83.337,235.192 83.971 C 236.380 84.604,237.562 85.123,237.818 85.123 C 238.074 85.123,238.980 85.650,239.831 86.294 C 240.683 86.939,241.520 87.471,241.692 87.477 C 242.636 87.510,248.849 92.769,252.412 96.552 C 272.865 118.262,269.593 153.600,245.517 171.013 C 244.325 171.875,242.850 172.965,242.239 173.436 C 238.902 176.007,230.123 179.464,223.251 180.914 C 220.217 181.554,132.972 181.360,131.416 180.710 C 124.546 177.839,145.571 155.708,163.547 146.890 C 167.078 145.157,172.003 143.054,172.528 143.054 C 172.735 143.054,174.271 142.608,175.942 142.063 C 183.014 139.754,189.729 139.016,203.153 139.072 C 212.764 139.113,215.823 139.001,217.497 138.547 C 225.091 136.491,225.497 126.206,218.128 122.569 C 217.148 122.086,213.305 121.945,195.665 121.744 C 172.442 121.481,171.669 121.413,165.017 119.038 C 138.442 109.553,124.117 78.817,134.318 53.169 C 137.687 44.698,143.907 36.634,151.330 31.113 C 152.739 30.065,154.363 28.843,154.939 28.397 C 155.515 27.951,156.146 27.586,156.340 27.586 C 156.534 27.586,157.493 27.079,158.472 26.458 C 159.450 25.838,160.933 25.105,161.768 24.829 C 162.603 24.554,163.832 24.014,164.500 23.630 C 165.168 23.246,166.512 22.813,167.488 22.668 C 168.463 22.522,170.591 22.070,172.217 21.661 C 173.842 21.253,175.527 20.844,175.961 20.752 C 178.157 20.285,265.065 20.524,266.010 21.000 M213.686 202.793 C 216.322 204.781,216.145 202.901,216.276 230.345 C 216.390 254.114,216.243 258.126,215.255 258.129 C 215.101 258.130,214.355 258.661,213.596 259.310 C 211.645 260.980,209.930 260.913,207.571 259.075 C 205.156 257.194,205.261 258.606,205.399 229.951 L 205.517 205.517 206.391 204.292 C 208.142 201.838,211.504 201.147,213.686 202.793 M296.436 202.183 C 300.872 203.415,301.895 209.784,298.061 212.297 C 296.312 213.443,245.948 213.385,244.046 212.234 C 240.123 209.861,241.154 203.574,245.706 202.108 C 247.081 201.666,294.827 201.736,296.436 202.183 M350.355 202.164 C 351.798 202.565,354.157 205.258,355.311 207.821 C 355.619 208.505,356.571 210.217,357.427 211.626 C 358.283 213.034,359.527 215.163,360.192 216.355 C 363.013 221.413,363.389 222.052,363.883 222.637 C 364.169 222.975,364.641 223.872,364.933 224.631 C 365.225 225.389,365.875 226.511,366.377 227.124 C 366.880 227.737,367.291 228.466,367.291 228.746 C 367.291 229.025,367.665 229.729,368.122 230.310 C 368.900 231.299,369.780 232.840,371.745 236.650 C 372.192 237.517,372.969 238.728,373.471 239.341 C 373.973 239.953,374.384 240.666,374.384 240.924 C 374.384 241.182,374.866 242.100,375.455 242.963 C 376.586 244.619,377.867 246.853,378.885 248.940 C 379.221 249.631,379.943 250.853,380.487 251.655 C 382.210 254.194,381.912 256.253,379.484 258.581 C 375.758 262.154,371.939 260.368,368.693 253.534 C 368.161 252.416,367.525 251.377,367.279 251.224 C 367.033 251.072,366.484 250.213,366.059 249.316 C 365.100 247.292,363.336 244.270,362.598 243.389 C 362.294 243.024,361.625 241.891,361.113 240.871 C 360.601 239.850,359.568 238.039,358.818 236.847 C 358.067 235.655,357.200 234.148,356.891 233.498 C 356.581 232.847,355.952 231.838,355.493 231.255 C 355.034 230.671,354.396 229.607,354.074 228.890 C 353.752 228.173,352.789 226.433,351.933 225.025 C 351.077 223.616,349.793 221.427,349.080 220.161 C 348.367 218.895,347.517 217.388,347.191 216.811 C 346.866 216.235,346.228 215.232,345.774 214.581 C 340.785 207.436,343.439 200.242,350.355 202.164 M101.397 202.962 C 101.952 203.399,102.818 204.419,103.322 205.228 L 104.236 206.700 104.236 231.133 C 104.236 258.795,104.443 256.994,100.999 259.295 C 97.917 261.354,93.159 259.587,92.466 256.125 C 91.841 252.998,92.195 206.865,92.855 205.474 C 94.375 202.270,98.846 200.955,101.397 202.962 M33.973 204.439 C 38.142 207.189,36.639 212.341,30.900 214.975 C 27.043 216.745,25.825 219.473,27.830 221.856 C 29.945 224.369,33.481 225.269,44.038 225.983 C 50.566 226.424,52.253 226.661,53.311 227.285 C 54.023 227.705,55.120 228.178,55.749 228.336 C 64.158 230.446,68.630 243.252,63.603 250.824 C 59.910 256.386,50.357 260.608,47.281 258.039 C 43.282 254.697,44.670 249.199,49.852 247.852 C 55.287 246.439,55.477 240.969,50.182 238.362 L 47.534 237.059 39.826 236.819 C 33.050 236.608,31.880 236.474,30.152 235.708 C 29.071 235.230,27.407 234.663,26.455 234.450 C 22.111 233.477,16.490 227.227,15.930 222.750 C 15.004 215.338,17.008 210.686,23.035 206.256 C 24.324 205.308,25.627 204.532,25.931 204.532 C 26.234 204.532,27.041 204.278,27.724 203.968 C 30.208 202.839,31.720 202.953,33.973 204.439 M54.613 203.772 C 58.867 205.045,60.218 205.730,61.689 207.358 C 65.339 211.398,61.144 218.040,56.073 216.248 C 55.036 215.881,53.095 215.332,51.759 215.026 C 44.856 213.447,42.500 207.654,47.335 204.151 C 49.330 202.706,50.797 202.629,54.613 203.772 M149.311 204.574 C 154.140 206.257,153.732 212.754,148.635 215.337 C 138.585 220.430,135.987 234.335,143.470 242.980 C 144.817 244.537,149.794 248.274,150.523 248.277 C 150.642 248.277,151.333 249.149,152.058 250.213 C 153.715 252.644,153.530 253.917,151.162 256.388 C 149.004 258.640,146.145 258.930,143.443 257.171 C 142.682 256.676,141.706 256.154,141.276 256.011 C 139.924 255.565,135.462 251.697,133.525 249.293 C 124.255 237.787,125.119 221.228,135.534 210.801 C 140.935 205.393,145.605 203.282,149.311 204.574 M171.742 205.959 C 174.563 207.816,177.734 210.450,177.734 210.935 C 177.734 211.138,178.089 211.755,178.522 212.306 C 179.608 213.686,179.511 215.480,178.251 217.347 C 175.814 220.959,172.676 221.037,168.191 217.598 C 166.538 216.331,164.683 215.086,164.068 214.831 C 160.461 213.337,159.959 207.697,163.198 205.061 C 164.960 203.627,168.815 204.032,171.742 205.959 M273.024 222.034 C 276.881 224.049,277.045 224.816,277.042 240.912 C 277.040 257.214,277.041 257.205,274.072 259.176 C 271.002 261.215,267.459 260.253,265.713 256.907 C 264.745 255.052,265.222 225.741,266.243 224.363 C 268.156 221.783,270.804 220.874,273.024 222.034 M340.943 223.392 C 343.018 225.467,343.539 227.796,342.324 229.567 C 342.031 229.995,341.344 231.143,340.798 232.118 C 340.252 233.094,339.474 234.460,339.068 235.155 C 338.001 236.984,338.595 237.355,342.744 237.450 C 350.657 237.631,354.071 241.447,350.503 246.124 C 348.656 248.546,348.114 248.670,339.377 248.670 L 331.522 248.670 330.499 250.011 C 329.936 250.749,329.255 251.858,328.985 252.475 C 326.208 258.815,321.711 261.762,318.324 259.461 C 314.887 257.126,314.273 255.317,315.825 252.101 C 316.878 249.917,317.180 249.390,322.014 241.294 C 323.724 238.429,325.123 235.987,325.123 235.867 C 325.123 235.747,325.540 234.987,326.050 234.179 C 326.560 233.371,327.910 231.113,329.049 229.163 C 333.917 220.828,336.922 219.371,340.943 223.392 M175.211 242.809 C 177.367 243.352,179.310 245.810,179.310 247.995 C 179.310 252.114,169.317 259.257,165.131 258.130 C 160.320 256.835,159.286 250.555,163.467 248.017 C 164.053 247.662,165.270 246.865,166.173 246.247 C 167.075 245.629,167.952 245.123,168.122 245.123 C 168.291 245.123,168.883 244.694,169.437 244.169 C 169.990 243.644,171.064 243.039,171.823 242.825 C 172.581 242.611,173.256 242.420,173.323 242.400 C 173.390 242.381,174.239 242.565,175.211 242.809 M24.851 246.816 C 25.380 247.162,27.032 247.639,28.522 247.876 C 33.429 248.656,36.256 250.936,36.256 254.112 C 36.256 258.125,32.695 260.331,28.044 259.199 C 26.600 258.848,24.620 258.459,23.645 258.335 C 21.080 258.008,17.077 255.387,16.299 253.523 C 14.175 248.439,20.154 243.750,24.851 246.816 M209.028 277.504 C 231.942 280.458,251.825 288.421,272.406 302.887 L 275.846 305.305 282.061 305.772 C 285.479 306.029,289.961 306.403,292.020 306.602 C 294.079 306.802,296.916 307.064,298.325 307.185 C 302.114 307.511,308.023 308.165,310.936 308.581 C 312.345 308.782,315.626 309.239,318.227 309.596 C 320.828 309.953,326.946 311.038,331.823 312.006 C 343.005 314.225,342.279 314.061,349.754 316.060 C 353.222 316.988,356.498 317.839,357.034 317.951 C 361.417 318.869,368.314 333.020,370.613 345.813 C 371.733 352.049,372.496 364.625,371.820 365.719 C 371.270 366.608,370.434 365.163,369.114 361.041 C 367.819 357.001,363.855 346.280,362.754 343.842 C 362.461 343.192,361.571 341.064,360.778 339.113 C 358.311 333.050,355.953 327.924,355.428 327.488 C 355.298 327.379,355.001 326.928,354.769 326.486 C 353.585 324.235,327.225 318.214,310.936 316.474 C 288.935 314.125,280.130 314.015,249.852 315.714 C 245.626 315.951,238.975 316.291,235.074 316.468 C 231.172 316.646,223.990 316.998,219.113 317.251 C 208.441 317.804,177.906 317.561,173.005 316.884 C 156.795 314.644,152.147 313.502,153.552 312.105 C 153.739 311.919,160.099 311.723,167.685 311.668 C 190.489 311.503,207.522 310.886,226.601 309.533 C 242.571 308.401,242.505 308.413,239.792 307.168 C 237.410 306.075,234.483 303.228,234.483 302.004 C 234.483 300.500,235.589 300.296,243.718 300.296 C 251.551 300.296,252.433 300.137,250.148 299.142 C 249.443 298.835,247.448 297.921,245.714 297.111 C 228.996 289.299,212.429 285.724,192.906 285.717 C 183.363 285.713,181.507 285.840,171.823 287.155 C 163.563 288.277,154.678 290.189,144.631 293.008 C 137.959 294.879,125.132 298.900,120.591 300.543 C 103.851 306.601,87.067 311.430,74.932 313.681 C 72.686 314.098,70.774 314.513,70.683 314.604 C 70.099 315.188,76.282 317.640,80.788 318.612 C 82.414 318.963,84.276 319.411,84.926 319.608 C 85.576 319.805,89.123 320.074,92.808 320.204 C 100.422 320.474,101.281 320.590,101.281 321.345 C 101.281 322.104,100.911 322.198,94.954 322.948 C 70.979 325.968,66.489 329.032,67.802 341.478 C 69.025 353.065,67.712 360.322,63.488 365.324 C 61.622 367.533,61.135 366.633,60.698 360.169 C 60.502 357.258,60.127 353.192,59.865 351.133 C 58.353 339.236,59.976 329.712,64.433 324.335 C 65.998 322.447,65.939 322.134,63.600 319.925 C 60.752 317.234,55.113 309.427,55.260 308.377 C 55.388 307.456,56.634 307.111,60.099 307.039 C 68.030 306.871,81.822 304.184,95.764 300.089 C 96.956 299.739,98.463 299.308,99.113 299.130 C 100.497 298.753,114.508 294.103,115.665 293.637 C 116.984 293.106,119.166 292.358,120.000 292.150 C 120.433 292.042,121.143 291.797,121.576 291.605 C 122.251 291.307,125.432 290.259,133.990 287.517 C 139.873 285.632,149.538 282.897,152.906 282.163 C 153.665 281.997,155.527 281.560,157.044 281.191 C 158.562 280.822,160.690 280.359,161.773 280.161 C 168.131 279.003,171.118 278.509,173.399 278.237 C 174.808 278.070,176.420 277.809,176.981 277.659 C 180.530 276.706,202.031 276.602,209.028 277.504 M256.552 303.483 C 256.552 304.873,258.292 306.207,260.104 306.207 C 262.104 306.207,261.930 305.897,258.924 304.107 C 256.758 302.817,256.552 302.762,256.552 303.483 M306.010 318.853 C 317.888 320.263,319.532 320.500,325.123 321.609 C 333.734 323.317,337.732 324.314,339.310 325.148 L 340.690 325.876 338.916 325.891 C 337.178 325.905,335.877 325.769,325.911 324.534 C 310.727 322.652,298.458 321.895,271.447 321.171 C 257.762 320.804,253.871 320.430,255.369 319.628 C 259.017 317.675,291.852 317.173,306.010 318.853 M137.017 321.236 C 145.078 324.944,150.921 330.568,154.292 337.863 C 156.377 342.375,155.975 343.069,151.447 342.781 C 148.677 342.604,148.439 342.420,147.732 339.901 C 145.928 333.479,140.483 326.281,134.433 322.320 C 130.708 319.881,132.467 319.144,137.017 321.236 M125.550 332.018 C 132.226 334.259,141.772 341.655,141.885 344.674 C 141.892 344.867,142.231 345.424,142.638 345.911 L 143.378 346.798 214.122 346.798 L 284.866 346.798 286.657 344.138 C 298.014 327.270,321.744 326.014,334.100 341.627 C 339.818 348.853,339.914 348.768,325.999 348.768 C 312.713 348.768,314.285 348.183,310.574 354.513 C 307.690 359.431,307.435 360.247,308.285 361.827 C 309.805 364.653,313.499 370.681,313.862 370.930 C 314.095 371.089,319.363 371.222,325.568 371.225 C 339.331 371.233,339.166 371.152,335.903 376.268 C 324.513 394.126,298.334 393.860,286.323 375.764 L 284.884 373.596 213.999 373.596 L 143.115 373.596 141.229 376.433 C 137.566 381.943,132.477 385.943,126.427 388.071 C 118.544 390.842,104.992 388.924,99.845 384.309 C 99.438 383.944,98.306 383.003,97.330 382.217 C 94.075 379.598,89.969 373.274,90.672 371.961 C 91.038 371.277,91.776 371.232,102.544 371.232 C 114.334 371.232,115.468 371.087,115.468 369.586 C 115.468 369.399,115.883 368.584,116.391 367.775 C 116.899 366.967,117.902 365.241,118.621 363.941 C 119.340 362.640,120.119 361.267,120.353 360.889 C 120.685 360.352,120.553 359.789,119.756 358.327 C 119.193 357.296,118.398 355.833,117.987 355.074 C 117.577 354.316,117.148 353.606,117.035 353.498 C 116.921 353.389,116.395 352.469,115.866 351.453 C 114.471 348.775,114.440 348.768,101.853 348.768 C 93.170 348.768,90.630 348.657,90.595 348.276 C 90.514 347.401,90.715 346.212,90.977 346.010 C 91.117 345.901,91.498 345.341,91.823 344.765 C 98.098 333.643,113.288 327.902,125.550 332.018 M146.364 358.779 C 146.247 359.084,146.208 359.927,146.278 360.652 L 146.404 361.970 213.399 362.078 C 288.048 362.198,282.256 362.366,282.091 360.085 L 281.970 358.424 214.274 358.324 C 156.371 358.239,146.546 358.305,146.364 358.779 " stroke="none" fill="#fbfbfb" fill-rule="evenodd"></path><path id="path2" d="M175.961 20.752 C 175.527 20.844,173.842 21.253,172.217 21.661 C 170.591 22.070,168.463 22.522,167.488 22.668 C 166.512 22.813,165.168 23.246,164.500 23.630 C 163.832 24.014,162.603 24.554,161.768 24.829 C 160.933 25.105,159.450 25.838,158.472 26.458 C 157.493 27.079,156.534 27.586,156.340 27.586 C 156.146 27.586,155.515 27.951,154.939 28.397 C 154.363 28.843,152.739 30.065,151.330 31.113 C 141.464 38.451,134.660 48.940,132.180 60.632 C 126.961 85.246,141.175 110.529,165.017 119.038 C 171.669 121.413,172.442 121.481,195.665 121.744 C 213.305 121.945,217.148 122.086,218.128 122.569 C 225.497 126.206,225.091 136.491,217.497 138.547 C 215.823 139.001,212.764 139.113,203.153 139.072 C 189.729 139.016,183.014 139.754,175.942 142.063 C 174.271 142.608,172.735 143.054,172.528 143.054 C 172.003 143.054,167.078 145.157,163.547 146.890 C 145.571 155.708,124.546 177.839,131.416 180.710 C 132.972 181.360,220.217 181.554,223.251 180.914 C 230.123 179.464,238.902 176.007,242.239 173.436 C 242.850 172.965,244.325 171.875,245.517 171.013 C 269.593 153.600,272.865 118.262,252.412 96.552 C 248.849 92.769,242.636 87.510,241.692 87.477 C 241.520 87.471,240.683 86.939,239.831 86.294 C 238.980 85.650,238.074 85.123,237.818 85.123 C 237.562 85.123,236.380 84.604,235.192 83.971 C 234.005 83.337,232.339 82.688,231.492 82.529 C 230.644 82.371,229.330 81.978,228.571 81.656 C 225.600 80.396,223.851 80.291,201.970 80.050 L 179.507 79.803 177.513 78.509 C 171.925 74.886,171.938 67.527,177.537 63.576 L 179.113 62.463 193.892 62.218 C 207.544 61.991,212.624 61.619,214.346 60.718 C 214.692 60.536,216.305 60.170,217.931 59.903 C 219.557 59.636,221.862 59.012,223.054 58.517 C 224.246 58.021,226.018 57.402,226.991 57.141 C 227.965 56.881,229.234 56.331,229.811 55.920 C 230.388 55.509,231.106 55.172,231.406 55.172 C 231.706 55.172,232.654 54.797,233.513 54.338 C 234.371 53.880,235.783 53.147,236.650 52.711 C 245.161 48.428,257.021 38.188,263.488 29.540 C 267.681 23.932,268.219 22.111,266.010 21.000 C 265.065 20.524,178.157 20.285,175.961 20.752 M265.276 22.017 C 267.805 24.526,254.868 39.620,243.982 46.861 C 236.424 51.890,229.199 55.614,224.491 56.909 C 223.376 57.216,221.448 57.838,220.207 58.290 C 218.966 58.743,217.606 59.113,217.185 59.113 C 216.763 59.113,214.143 59.575,211.362 60.140 C 206.685 61.089,205.255 61.186,192.315 61.421 L 178.325 61.675 176.648 63.024 C 170.848 67.687,170.963 75.205,176.899 79.327 L 178.719 80.591 200.788 80.824 C 219.087 81.017,223.126 81.158,224.433 81.651 C 225.300 81.978,227.340 82.563,228.966 82.951 C 245.335 86.862,261.056 104.336,263.885 121.763 C 267.302 142.812,256.715 165.026,238.945 174.093 C 238.040 174.555,236.976 175.114,236.581 175.336 C 232.993 177.349,226.205 179.224,219.375 180.090 C 214.965 180.649,132.931 179.903,132.201 179.297 C 130.031 177.496,136.870 167.864,145.560 160.480 C 163.609 145.144,177.828 140.306,204.910 140.287 C 215.707 140.279,217.108 140.204,218.522 139.560 C 226.401 135.968,226.621 125.956,218.916 121.666 C 217.357 120.798,217.113 120.786,196.453 120.567 C 173.268 120.321,172.063 120.209,164.964 117.639 C 158.653 115.355,154.346 112.694,148.044 107.185 C 132.384 93.497,127.681 66.443,137.836 48.473 C 139.827 44.951,141.261 42.733,142.442 41.351 C 143.104 40.576,144.397 39.045,145.315 37.949 C 146.819 36.154,151.590 31.939,154.680 29.676 C 155.914 28.772,160.482 26.428,164.532 24.621 C 165.943 23.992,169.360 23.114,173.005 22.446 L 179.113 21.327 222.069 21.547 C 245.695 21.668,265.138 21.880,265.276 22.017 M208.559 202.408 C 207.848 202.770,206.872 203.618,206.391 204.292 L 205.517 205.517 205.399 229.951 C 205.261 258.606,205.156 257.194,207.571 259.075 C 209.930 260.913,211.645 260.980,213.596 259.310 C 214.355 258.661,215.101 258.130,215.255 258.129 C 216.720 258.124,216.852 206.431,215.392 204.510 C 213.509 202.033,210.882 201.225,208.559 202.408 M245.706 202.108 C 241.154 203.574,240.123 209.861,244.046 212.234 C 245.948 213.385,296.312 213.443,298.061 212.297 C 301.895 209.784,300.872 203.415,296.436 202.183 C 294.827 201.736,247.081 201.666,245.706 202.108 M346.586 202.193 C 342.358 203.422,341.983 209.152,345.774 214.581 C 346.228 215.232,346.866 216.235,347.191 216.811 C 347.517 217.388,348.367 218.895,349.080 220.161 C 349.793 221.427,351.077 223.616,351.933 225.025 C 352.789 226.433,353.752 228.173,354.074 228.890 C 354.396 229.607,355.034 230.671,355.493 231.255 C 355.952 231.838,356.581 232.847,356.891 233.498 C 357.200 234.148,358.067 235.655,358.818 236.847 C 359.568 238.039,360.601 239.850,361.113 240.871 C 361.625 241.891,362.294 243.024,362.598 243.389 C 363.336 244.270,365.100 247.292,366.059 249.316 C 366.484 250.213,367.033 251.072,367.279 251.224 C 367.525 251.377,368.161 252.416,368.693 253.534 C 371.939 260.368,375.758 262.154,379.484 258.581 C 381.912 256.253,382.210 254.194,380.487 251.655 C 379.943 250.853,379.221 249.631,378.885 248.940 C 377.867 246.853,376.586 244.619,375.455 242.963 C 374.866 242.100,374.384 241.182,374.384 240.924 C 374.384 240.666,373.973 239.953,373.471 239.341 C 372.969 238.728,372.192 237.517,371.745 236.650 C 369.780 232.840,368.900 231.299,368.122 230.310 C 367.665 229.729,367.291 229.025,367.291 228.746 C 367.291 228.466,366.880 227.737,366.377 227.124 C 365.875 226.511,365.225 225.389,364.933 224.631 C 364.641 223.872,364.169 222.975,363.883 222.637 C 363.389 222.052,363.013 221.413,360.192 216.355 C 359.527 215.163,358.283 213.034,357.427 211.626 C 356.571 210.217,355.619 208.505,355.311 207.821 C 353.167 203.060,350.196 201.143,346.586 202.193 M94.659 203.148 C 92.140 205.268,92.217 204.392,92.217 230.848 C 92.217 258.141,92.117 256.883,94.422 258.771 C 96.866 260.774,98.581 260.911,100.999 259.295 C 104.443 256.994,104.236 258.795,104.236 231.133 L 104.236 206.700 103.322 205.228 C 101.288 201.958,97.231 200.984,94.659 203.148 M29.754 203.263 C 29.320 203.340,28.407 203.657,27.724 203.968 C 27.041 204.278,26.234 204.532,25.931 204.532 C 25.627 204.532,24.324 205.308,23.035 206.256 C 17.008 210.686,15.004 215.338,15.930 222.750 C 16.490 227.227,22.111 233.477,26.455 234.450 C 27.407 234.663,29.071 235.230,30.152 235.708 C 31.880 236.474,33.050 236.608,39.826 236.819 L 47.534 237.059 50.182 238.362 C 55.477 240.969,55.287 246.439,49.852 247.852 C 44.670 249.199,43.282 254.697,47.281 258.039 C 50.357 260.608,59.910 256.386,63.603 250.824 C 68.630 243.252,64.158 230.446,55.749 228.336 C 55.120 228.178,54.023 227.705,53.311 227.285 C 52.253 226.661,50.566 226.424,44.038 225.983 C 33.481 225.269,29.945 224.369,27.830 221.856 C 25.825 219.473,27.043 216.745,30.900 214.975 C 35.382 212.918,37.025 210.222,35.891 206.787 C 35.190 204.662,32.042 202.855,29.754 203.263 M47.335 204.151 C 42.500 207.654,44.856 213.447,51.759 215.026 C 53.095 215.332,55.036 215.881,56.073 216.248 C 61.144 218.040,65.339 211.398,61.689 207.358 C 58.431 203.752,50.372 201.951,47.335 204.151 M101.281 204.744 L 102.660 206.121 102.767 230.540 C 102.888 258.081,102.988 257.048,100.061 258.541 C 98.063 259.561,96.146 259.202,94.558 257.512 L 93.596 256.489 93.484 231.988 C 93.362 205.229,93.307 206.309,94.869 204.743 C 97.059 202.547,99.080 202.548,101.281 204.744 M213.940 204.720 L 215.567 206.485 215.567 231.382 L 215.567 256.279 213.925 257.795 C 211.994 259.577,210.465 259.762,208.288 258.477 C 206.041 257.151,206.108 257.999,206.108 231.189 L 206.108 206.169 207.160 204.919 C 209.346 202.322,211.666 202.253,213.940 204.720 M297.495 204.344 C 299.937 206.551,299.737 209.859,297.055 211.626 C 295.937 212.362,248.712 212.757,246.289 212.050 C 241.788 210.737,241.417 205.123,245.714 203.334 C 246.148 203.153,257.630 202.994,271.230 202.981 L 295.958 202.956 297.495 204.344 M352.118 205.040 C 352.985 205.989,354.208 207.727,354.835 208.900 C 355.462 210.074,356.374 211.780,356.861 212.691 C 357.348 213.602,358.120 214.823,358.577 215.404 C 359.035 215.985,359.409 216.662,359.409 216.907 C 359.409 217.153,359.891 218.060,360.480 218.923 C 361.518 220.444,362.512 222.165,364.006 225.025 C 364.402 225.783,365.215 227.096,365.811 227.941 C 366.408 228.786,366.897 229.704,366.897 229.980 C 366.897 230.256,367.299 230.983,367.792 231.595 C 368.284 232.208,368.998 233.330,369.379 234.089 C 369.759 234.847,370.779 236.621,371.645 238.030 C 372.511 239.438,373.500 241.212,373.841 241.970 C 374.183 242.729,374.755 243.678,375.113 244.079 C 375.771 244.817,375.967 245.166,379.073 251.132 C 381.008 254.849,381.032 255.779,379.241 257.570 C 375.738 261.073,372.581 259.541,369.259 252.726 C 368.814 251.813,368.269 250.955,368.047 250.818 C 367.824 250.680,367.229 249.632,366.723 248.487 C 366.216 247.343,365.610 246.288,365.375 246.143 C 365.141 245.997,364.578 245.132,364.124 244.220 C 362.848 241.652,361.651 239.555,360.480 237.840 C 359.891 236.976,359.409 236.059,359.409 235.801 C 359.409 235.543,358.986 234.829,358.469 234.214 C 357.952 233.600,357.246 232.478,356.901 231.721 C 356.556 230.964,355.563 229.192,354.694 227.783 C 353.824 226.374,352.829 224.612,352.481 223.867 C 352.134 223.123,351.422 221.953,350.900 221.269 C 350.378 220.584,349.951 219.858,349.951 219.654 C 349.951 219.450,349.345 218.314,348.605 217.130 C 347.864 215.945,346.794 214.234,346.227 213.328 C 341.762 206.195,346.757 199.168,352.118 205.040 M55.498 205.195 C 60.196 206.370,62.668 209.151,61.802 212.286 C 60.243 217.935,45.006 213.929,45.880 208.100 C 46.409 204.571,49.397 203.668,55.498 205.195 M144.109 204.710 C 131.893 209.066,124.061 226.489,128.332 239.803 C 130.334 246.042,137.227 254.674,141.276 256.011 C 141.706 256.154,142.682 256.676,143.443 257.171 C 146.145 258.930,149.004 258.640,151.162 256.388 C 153.530 253.917,153.715 252.644,152.058 250.213 C 151.333 249.149,150.642 248.277,150.523 248.277 C 149.794 248.274,144.817 244.537,143.470 242.980 C 135.987 234.335,138.585 220.430,148.635 215.337 C 156.331 211.437,152.231 201.813,144.109 204.710 M164.532 204.401 C 160.166 205.599,159.833 213.077,164.068 214.831 C 164.683 215.086,166.538 216.331,168.191 217.598 C 172.676 221.037,175.814 220.959,178.251 217.347 C 179.511 215.480,179.608 213.686,178.522 212.306 C 178.089 211.755,177.734 211.138,177.734 210.935 C 177.734 210.450,174.563 207.816,171.742 205.959 C 169.485 204.473,166.566 203.842,164.532 204.401 M33.135 205.204 C 37.017 207.498,35.823 211.279,30.316 214.136 C 24.418 217.195,24.471 221.869,30.437 224.874 L 33.271 226.301 40.971 226.608 C 50.012 226.968,54.674 228.196,58.925 231.337 C 67.333 237.548,66.313 250.678,57.034 255.687 C 55.952 256.271,54.603 257.006,54.036 257.320 C 50.532 259.261,45.714 256.999,45.714 253.413 C 45.714 251.594,47.875 249.354,50.490 248.463 C 54.751 247.011,56.507 242.438,53.863 239.679 C 51.233 236.934,49.740 236.508,41.343 236.107 C 36.357 235.869,33.077 235.530,31.921 235.133 C 30.946 234.798,29.276 234.330,28.210 234.093 C 19.067 232.058,13.745 221.328,17.943 213.397 C 21.301 207.054,29.124 202.835,33.135 205.204 M170.540 206.572 C 176.281 209.817,178.798 213.200,177.602 216.063 C 176.020 219.848,173.385 220.197,169.319 217.158 C 167.881 216.082,166.303 214.996,165.815 214.745 C 162.034 212.800,160.989 208.665,163.657 206.206 C 165.354 204.641,167.308 204.745,170.540 206.572 M149.384 205.727 C 152.872 207.594,151.954 212.279,147.621 214.724 C 134.210 222.293,134.919 241.213,148.884 248.431 C 153.177 250.650,151.935 257.340,147.231 257.340 C 141.984 257.340,133.346 249.141,130.170 241.146 L 128.697 237.438 128.698 231.133 C 128.698 224.919,128.717 224.780,130.003 221.553 C 133.979 211.569,144.400 203.060,149.384 205.727 M268.370 222.365 C 265.301 224.453,265.431 223.676,265.319 240.718 C 265.209 257.430,265.156 257.007,267.617 258.990 C 270.659 261.442,275.605 259.947,276.627 256.266 C 277.190 254.237,277.189 227.429,276.625 225.937 C 275.237 222.264,271.130 220.486,268.370 222.365 M334.331 222.234 C 332.811 223.161,331.715 224.598,329.049 229.163 C 327.910 231.113,326.560 233.371,326.050 234.179 C 325.540 234.987,325.123 235.747,325.123 235.867 C 325.123 235.987,323.724 238.429,322.014 241.294 C 317.180 249.390,316.878 249.917,315.825 252.101 C 314.273 255.317,314.887 257.126,318.324 259.461 C 321.711 261.762,326.208 258.815,328.985 252.475 C 329.255 251.858,329.936 250.749,330.499 250.011 L 331.522 248.670 339.377 248.670 C 348.114 248.670,348.656 248.546,350.503 246.124 C 354.071 241.447,350.657 237.631,342.744 237.450 C 338.595 237.355,338.001 236.984,339.068 235.155 C 339.474 234.460,340.252 233.094,340.798 232.118 C 341.344 231.143,342.031 229.995,342.324 229.567 C 345.153 225.444,338.730 219.552,334.331 222.234 M273.144 223.555 C 275.817 225.341,275.861 225.619,275.859 240.788 C 275.857 256.208,275.789 256.700,273.426 258.232 C 271.125 259.724,268.214 259.103,266.706 256.797 C 265.937 255.622,266.375 225.956,267.176 224.938 C 268.891 222.758,271.163 222.231,273.144 223.555 M340.145 224.190 C 342.329 226.374,341.744 229.859,338.497 234.009 C 336.042 237.146,337.117 238.423,342.216 238.426 C 348.692 238.429,350.424 239.408,350.424 243.063 C 350.424 246.926,348.131 247.880,338.846 247.881 L 331.485 247.882 330.149 249.163 C 329.415 249.867,327.976 251.992,326.951 253.885 C 324.186 258.996,321.629 260.336,318.577 258.275 C 315.518 256.209,315.592 254.809,319.076 248.721 C 320.519 246.200,322.304 243.074,323.043 241.773 C 323.782 240.473,325.082 238.256,325.933 236.847 C 326.783 235.438,327.736 233.754,328.049 233.103 C 332.568 223.742,336.672 220.717,340.145 224.190 M171.823 242.825 C 171.064 243.039,169.990 243.644,169.437 244.169 C 168.883 244.694,168.291 245.123,168.122 245.123 C 167.952 245.123,167.075 245.629,166.173 246.247 C 165.270 246.865,164.053 247.662,163.467 248.017 C 159.286 250.555,160.320 256.835,165.131 258.130 C 169.317 259.257,179.310 252.114,179.310 247.995 C 179.310 245.313,175.507 241.759,173.323 242.400 C 173.256 242.420,172.581 242.611,171.823 242.825 M175.945 243.792 C 176.724 244.091,178.128 246.741,178.128 247.911 C 178.128 252.293,168.110 258.701,164.322 256.742 C 161.335 255.198,161.320 249.829,164.299 248.552 C 165.548 248.017,168.415 246.101,170.161 244.634 C 171.460 243.544,174.242 243.139,175.945 243.792 M20.513 245.838 C 17.242 246.341,15.004 250.423,16.299 253.523 C 17.077 255.387,21.080 258.008,23.645 258.335 C 24.620 258.459,26.600 258.848,28.044 259.199 C 32.695 260.331,36.256 258.125,36.256 254.112 C 36.256 250.936,33.429 248.656,28.522 247.876 C 27.032 247.639,25.380 247.162,24.851 246.816 C 23.687 246.057,21.824 245.637,20.513 245.838 M23.773 247.458 C 24.747 247.875,26.402 248.340,27.451 248.490 C 34.822 249.545,38.035 255.197,32.850 257.989 C 30.148 259.444,20.802 257.275,17.853 254.507 C 14.068 250.955,18.796 245.325,23.773 247.458 M191.642 276.943 C 193.114 277.019,195.419 277.018,196.765 276.942 C 198.111 276.865,196.906 276.803,194.089 276.803 C 191.271 276.804,190.170 276.867,191.642 276.943 M178.387 277.461 C 176.904 277.634,175.574 277.898,175.431 278.050 C 175.289 278.201,176.236 278.190,177.537 278.026 C 178.837 277.861,181.409 277.599,183.251 277.443 L 186.601 277.160 183.842 277.154 C 182.325 277.151,179.870 277.289,178.387 277.461 M202.848 277.329 C 203.548 277.416,204.789 277.417,205.607 277.332 C 206.425 277.247,205.852 277.175,204.335 277.174 C 202.818 277.172,202.149 277.242,202.848 277.329 M208.867 277.853 C 209.842 278.026,211.084 278.164,211.626 278.158 L 212.611 278.148 211.626 277.833 C 211.084 277.659,209.842 277.522,208.867 277.527 L 207.094 277.537 208.867 277.853 M170.443 278.641 C 169.913 278.882,170.299 278.921,171.626 278.760 C 172.709 278.628,173.670 278.454,173.760 278.373 C 174.106 278.065,171.193 278.300,170.443 278.641 M214.581 278.621 C 215.232 278.786,216.118 278.930,216.552 278.940 L 217.340 278.959 216.552 278.621 C 216.118 278.434,215.232 278.291,214.581 278.301 L 213.399 278.320 214.581 278.621 M167.586 279.286 C 167.966 279.386,168.586 279.386,168.966 279.286 C 169.345 279.187,169.034 279.106,168.276 279.106 C 167.517 279.106,167.207 279.187,167.586 279.286 M163.744 279.803 L 162.956 280.142 163.744 280.130 C 164.177 280.124,164.975 279.976,165.517 279.803 L 166.502 279.487 165.517 279.476 C 164.975 279.469,164.177 279.617,163.744 279.803 M220.887 279.803 C 221.320 279.989,222.030 280.142,222.463 280.142 L 223.251 280.142 222.463 279.803 C 222.030 279.617,221.320 279.464,220.887 279.464 L 220.099 279.464 220.887 279.803 M157.463 281.034 C 154.533 281.742,152.491 282.587,155.074 282.022 C 160.931 280.743,162.779 280.259,161.773 280.268 C 161.123 280.273,159.184 280.618,157.463 281.034 M225.222 280.816 C 226.305 281.117,227.369 281.349,227.586 281.330 C 228.253 281.273,224.878 280.257,224.039 280.263 C 223.606 280.265,224.138 280.514,225.222 280.816 M150.542 282.759 C 148.699 283.468,149.882 283.484,152.118 282.779 C 153.332 282.396,153.581 282.221,152.906 282.224 C 152.365 282.226,151.300 282.466,150.542 282.759 M231.921 282.770 C 233.963 283.506,234.674 283.487,232.960 282.743 C 232.230 282.427,231.344 282.175,230.989 282.185 C 230.635 282.194,231.054 282.458,231.921 282.770 M145.616 284.016 C 144.532 284.338,142.701 284.867,141.547 285.194 C 140.393 285.520,139.526 285.865,139.621 285.959 C 139.788 286.126,148.600 283.795,148.933 283.497 C 149.287 283.180,147.488 283.461,145.616 284.016 M235.074 283.753 C 235.507 283.945,237.980 284.916,240.569 285.910 C 246.217 288.080,256.548 293.180,261.157 296.074 C 263.186 297.349,264.433 297.997,264.433 297.776 C 264.433 297.381,258.542 293.999,252.020 290.651 C 247.220 288.187,243.366 286.484,238.030 284.469 C 235.307 283.441,233.244 282.941,235.074 283.753 M187.708 285.615 C 190.702 285.682,195.490 285.682,198.349 285.615 C 201.208 285.547,198.759 285.492,192.906 285.493 C 187.054 285.493,184.715 285.548,187.708 285.615 M174.187 286.350 C 168.751 287.078,160.155 288.674,156.453 289.642 C 152.467 290.685,154.630 290.392,161.576 288.948 C 164.719 288.295,169.419 287.476,172.020 287.128 C 174.621 286.780,177.901 286.342,179.310 286.155 C 181.506 285.863,181.619 285.813,180.099 285.805 C 179.123 285.800,176.463 286.045,174.187 286.350 M206.502 286.172 C 207.911 286.369,211.281 286.902,213.990 287.357 C 220.415 288.437,221.774 288.574,219.113 287.875 C 216.402 287.163,206.710 285.702,205.123 285.767 C 204.473 285.793,205.094 285.976,206.502 286.172 M135.567 286.988 C 134.158 287.431,133.182 287.852,133.399 287.924 C 133.616 287.995,135.034 287.630,136.552 287.113 C 139.914 285.965,139.133 285.866,135.567 286.988 M130.246 288.684 C 128.728 289.379,129.813 289.368,131.626 288.670 C 132.488 288.338,132.710 288.140,132.217 288.141 C 131.783 288.142,130.897 288.386,130.246 288.684 M221.529 288.656 C 221.692 288.819,225.120 289.737,227.783 290.331 C 229.984 290.822,228.155 290.047,225.321 289.288 C 222.336 288.488,221.166 288.293,221.529 288.656 M124.846 290.403 C 123.176 290.983,121.669 291.612,121.496 291.801 C 121.324 291.991,121.448 292.051,121.773 291.936 C 122.099 291.821,123.828 291.242,125.616 290.649 C 128.642 289.646,129.558 289.199,128.374 289.305 C 128.103 289.329,126.516 289.824,124.846 290.403 M150.345 291.046 C 149.141 291.442,149.001 291.565,149.754 291.565 C 150.296 291.566,151.360 291.327,152.118 291.034 C 153.918 290.341,152.454 290.350,150.345 291.046 M228.966 290.606 C 228.966 290.863,234.160 292.474,234.355 292.279 C 234.452 292.182,233.374 291.730,231.961 291.273 C 229.281 290.407,228.966 290.337,228.966 290.606 M146.798 292.020 L 146.010 292.358 146.798 292.380 C 147.232 292.392,147.852 292.230,148.177 292.020 C 148.961 291.513,147.976 291.513,146.798 292.020 M118.621 292.611 C 117.327 293.350,118.165 293.361,119.856 292.626 C 120.772 292.229,120.938 292.050,120.394 292.049 C 119.961 292.048,119.163 292.301,118.621 292.611 M143.251 293.016 C 142.384 293.302,142.030 293.536,142.463 293.536 C 142.897 293.536,143.872 293.297,144.631 293.005 C 146.399 292.324,145.325 292.332,143.251 293.016 M234.910 292.576 C 235.227 292.889,239.363 294.364,239.511 294.216 C 239.593 294.134,238.666 293.695,237.451 293.240 C 235.297 292.435,234.576 292.246,234.910 292.576 M115.665 293.596 C 115.377 294.062,115.763 294.062,116.847 293.596 C 117.607 293.270,117.604 293.256,116.772 293.230 C 116.297 293.214,115.799 293.379,115.665 293.596 M112.906 294.567 C 111.312 295.297,112.269 295.324,113.945 294.597 C 114.674 294.280,115.005 294.022,114.680 294.023 C 114.355 294.025,113.557 294.269,112.906 294.567 M136.749 294.975 C 135.990 295.268,135.635 295.507,135.961 295.507 C 136.286 295.507,137.172 295.268,137.931 294.975 C 138.690 294.683,139.044 294.444,138.719 294.444 C 138.394 294.444,137.507 294.683,136.749 294.975 M240.788 294.975 C 241.330 295.285,242.039 295.544,242.365 295.550 C 242.690 295.556,242.448 295.297,241.827 294.973 C 240.388 294.223,239.475 294.225,240.788 294.975 M108.247 296.047 C 106.985 296.473,106.040 296.911,106.148 297.019 C 106.324 297.195,111.090 295.679,111.494 295.319 C 111.863 294.990,110.407 295.316,108.247 296.047 M246.700 297.537 C 247.892 298.167,249.044 298.682,249.261 298.682 C 249.478 298.682,248.680 298.167,247.488 297.537 C 246.296 296.907,245.143 296.392,244.926 296.392 C 244.709 296.392,245.507 296.907,246.700 297.537 M125.517 298.529 C 124.000 299.038,122.988 299.466,123.267 299.481 C 123.886 299.513,128.867 297.929,128.867 297.700 C 128.867 297.441,128.449 297.545,125.517 298.529 M265.025 298.224 C 265.567 298.785,275.449 305.419,275.743 305.419 C 276.058 305.419,273.660 303.693,269.337 300.807 C 265.430 298.199,264.411 297.588,265.025 298.224 M96.946 299.729 C 96.187 300.016,95.856 300.261,96.211 300.273 C 96.565 300.286,97.452 300.036,98.181 299.720 C 99.822 299.007,98.834 299.015,96.946 299.729 M251.429 299.874 C 251.429 300.076,251.030 300.318,250.542 300.412 C 249.901 300.535,250.010 300.597,250.936 300.636 C 251.836 300.674,252.217 300.514,252.217 300.099 C 252.217 299.773,252.039 299.507,251.823 299.507 C 251.606 299.507,251.429 299.672,251.429 299.874 M93.793 300.690 C 93.268 301.029,93.268 301.072,93.793 301.072 C 94.118 301.072,94.650 300.900,94.975 300.690 C 95.501 300.350,95.501 300.308,94.975 300.308 C 94.650 300.308,94.118 300.480,93.793 300.690 M116.650 301.535 C 115.025 302.164,114.190 302.580,114.796 302.460 C 116.230 302.176,120.968 300.344,120.197 300.372 C 119.872 300.383,118.276 300.907,116.650 301.535 M235.172 300.721 C 233.770 301.538,236.660 306.601,238.528 306.601 C 238.737 306.601,238.000 305.750,236.892 304.709 C 233.435 301.464,234.104 300.761,240.813 300.591 L 245.714 300.466 240.788 300.393 C 238.011 300.351,235.561 300.495,235.172 300.721 M90.640 301.488 C 90.099 301.676,88.857 302.040,87.882 302.298 C 86.906 302.556,86.286 302.827,86.502 302.901 C 86.719 302.974,88.315 302.608,90.049 302.086 C 91.783 301.564,92.847 301.139,92.414 301.142 C 91.980 301.144,91.182 301.300,90.640 301.488 M255.764 302.476 C 255.764 304.577,258.168 306.710,260.334 306.528 C 262.551 306.342,262.339 305.787,259.347 303.941 C 256.835 302.391,255.764 301.953,255.764 302.476 M110.435 303.537 C 109.076 303.985,108.045 304.432,108.144 304.531 C 108.343 304.731,113.498 303.088,113.498 302.825 C 113.498 302.569,113.088 302.664,110.435 303.537 M261.509 305.864 C 261.626 306.052,260.994 306.207,260.104 306.207 C 258.292 306.207,256.552 304.873,256.552 303.483 C 256.552 302.712,260.832 304.767,261.509 305.864 M82.562 303.634 C 80.454 304.329,81.653 304.344,84.138 303.655 C 85.277 303.338,85.693 303.109,85.123 303.111 C 84.581 303.113,83.429 303.349,82.562 303.634 M78.030 304.631 C 77.277 305.117,78.087 305.117,79.606 304.631 L 80.591 304.315 79.606 304.282 C 79.064 304.263,78.355 304.420,78.030 304.631 M104.524 305.508 C 103.164 305.955,102.133 306.403,102.232 306.502 C 102.432 306.701,107.586 305.059,107.586 304.795 C 107.586 304.539,107.177 304.634,104.524 305.508 M75.369 305.296 C 75.749 305.395,76.369 305.395,76.749 305.296 C 77.128 305.197,76.818 305.116,76.059 305.116 C 75.300 305.116,74.990 305.197,75.369 305.296 M72.479 305.573 C 72.265 305.776,62.298 306.965,59.507 307.122 C 57.388 307.241,57.398 307.245,59.957 307.316 C 62.504 307.387,73.988 306.045,74.405 305.627 C 74.643 305.390,72.731 305.336,72.479 305.573 M277.833 305.811 C 279.612 306.150,284.413 306.338,284.105 306.057 C 284.015 305.974,282.167 305.809,280.000 305.690 C 277.250 305.539,276.595 305.575,277.833 305.811 M284.959 306.357 C 285.049 306.440,287.074 306.603,289.458 306.721 C 292.431 306.867,293.174 306.831,291.823 306.605 C 289.817 306.270,284.660 306.084,284.959 306.357 M96.946 307.854 C 94.887 308.495,90.187 309.799,86.502 310.753 C 82.818 311.706,80.159 312.492,80.594 312.499 C 82.094 312.524,101.007 307.400,101.598 306.809 C 102.009 306.398,100.628 306.709,96.946 307.854 M239.212 306.776 C 239.212 306.919,239.753 307.225,240.414 307.455 C 241.949 307.990,241.724 308.186,239.139 308.562 L 237.044 308.867 238.851 308.916 C 240.696 308.967,245.279 308.202,244.972 307.895 C 244.879 307.802,243.855 307.585,242.697 307.414 C 241.539 307.243,240.281 306.971,239.901 306.810 C 239.522 306.649,239.212 306.634,239.212 306.776 M296.552 307.364 C 301.413 307.916,305.836 308.184,303.842 307.805 C 302.867 307.619,300.207 307.374,297.931 307.259 C 294.649 307.094,294.364 307.115,296.552 307.364 M55.435 307.652 C 54.869 308.218,55.238 309.255,56.780 311.429 C 58.898 314.414,59.196 314.354,57.158 311.352 C 55.319 308.644,55.247 308.280,56.453 307.796 C 57.305 307.453,57.307 307.438,56.519 307.414 C 56.067 307.400,55.580 307.507,55.435 307.652 M307.586 308.590 C 310.372 309.023,312.314 309.013,310.936 308.571 C 310.394 308.398,308.975 308.262,307.783 308.269 L 305.616 308.283 307.586 308.590 M226.404 309.593 L 221.281 310.098 226.010 309.894 C 228.611 309.782,232.158 309.554,233.892 309.387 L 237.044 309.084 234.286 309.086 C 232.768 309.088,229.222 309.316,226.404 309.593 M315.271 309.579 C 317.113 309.873,319.064 310.102,319.606 310.087 C 321.185 310.043,315.237 309.012,313.498 309.029 C 312.473 309.038,313.093 309.231,315.271 309.579 M212.370 310.323 C 212.006 310.686,191.416 311.343,173.005 311.579 C 154.738 311.813,152.895 311.932,153.458 312.842 C 153.816 313.421,157.504 314.574,158.320 314.361 C 158.878 314.216,158.850 314.171,158.176 314.134 C 156.953 314.068,154.418 312.937,154.650 312.561 C 154.759 312.384,163.323 312.130,173.680 311.996 C 192.108 311.758,209.273 311.189,216.749 310.569 L 220.493 310.258 216.519 310.203 C 214.333 310.173,212.466 310.227,212.370 310.323 M322.956 310.623 C 324.039 310.833,328.030 311.635,331.823 312.405 C 340.134 314.091,341.153 314.264,340.846 313.934 C 340.514 313.578,323.177 310.147,321.970 310.199 C 321.429 310.222,321.872 310.413,322.956 310.623 M74.313 313.342 C 69.887 314.169,69.306 314.493,70.659 315.379 C 72.083 316.312,76.468 318.090,76.950 317.930 C 77.182 317.852,76.235 317.374,74.844 316.868 C 69.510 314.924,69.530 314.676,75.096 313.673 C 77.432 313.252,79.431 312.818,79.540 312.710 C 79.855 312.395,78.503 312.558,74.313 313.342 M59.557 315.271 C 60.657 316.947,64.562 321.118,65.502 321.621 C 65.876 321.821,65.068 320.873,63.706 319.515 C 62.344 318.156,60.649 316.335,59.940 315.468 C 58.783 314.052,58.744 314.032,59.557 315.271 M277.753 314.382 C 279.551 314.455,282.389 314.455,284.058 314.381 C 285.728 314.308,284.256 314.248,280.788 314.248 C 277.320 314.249,275.954 314.309,277.753 314.382 M343.054 314.707 C 345.623 315.422,346.732 315.384,344.433 314.659 C 343.458 314.352,342.305 314.114,341.872 314.130 C 341.438 314.146,341.970 314.406,343.054 314.707 M159.803 314.877 C 160.236 315.063,161.123 315.207,161.773 315.197 L 162.956 315.178 161.773 314.877 C 161.123 314.711,160.236 314.567,159.803 314.557 L 159.015 314.538 159.803 314.877 M258.522 314.877 L 254.778 315.120 258.916 315.142 C 261.192 315.154,265.182 315.042,267.783 314.892 L 272.512 314.621 267.389 314.627 C 264.571 314.631,260.581 314.743,258.522 314.877 M291.626 314.899 C 293.468 315.060,296.217 315.182,297.734 315.168 L 300.493 315.143 297.537 314.865 C 295.911 314.711,293.163 314.590,291.429 314.595 L 288.276 314.605 291.626 314.899 M165.517 315.876 C 166.926 316.167,168.700 316.396,169.458 316.386 C 170.301 316.375,169.689 316.167,167.882 315.850 C 164.027 315.173,162.207 315.194,165.517 315.876 M239.606 315.894 L 233.103 316.393 238.818 316.187 C 241.961 316.074,246.394 315.849,248.670 315.688 L 252.808 315.395 249.458 315.395 C 247.616 315.395,243.182 315.620,239.606 315.894 M305.419 315.851 C 307.695 316.153,310.089 316.391,310.739 316.378 C 312.717 316.339,308.795 315.772,304.828 315.523 L 301.281 315.301 305.419 315.851 M346.798 315.665 C 347.123 315.875,347.744 316.037,348.177 316.025 L 348.966 316.004 348.177 315.665 C 346.999 315.159,346.015 315.159,346.798 315.665 M349.163 316.196 C 349.163 316.271,351.009 316.822,353.265 317.420 C 360.045 319.217,362.540 322.094,366.525 332.708 C 367.237 334.604,367.897 336.077,367.992 335.982 C 368.835 335.139,362.572 322.769,360.000 320.197 C 358.079 318.276,349.163 314.984,349.163 316.196 M173.990 316.848 C 175.546 317.191,179.990 317.382,179.672 317.092 C 179.581 317.010,177.911 316.843,175.961 316.721 C 173.439 316.564,172.869 316.601,173.990 316.848 M220.690 316.847 L 217.340 317.095 220.887 317.122 C 222.837 317.137,225.586 317.020,226.995 316.861 L 229.557 316.573 226.798 316.587 C 225.281 316.594,222.532 316.711,220.690 316.847 M314.286 316.847 C 314.936 317.013,316.000 317.148,316.650 317.148 L 317.833 317.148 316.650 316.847 C 316.000 316.682,314.936 316.546,314.286 316.546 L 313.103 316.546 314.286 316.847 M182.938 317.533 C 184.392 317.609,186.875 317.609,188.456 317.534 C 190.037 317.459,188.847 317.397,185.813 317.397 C 182.778 317.396,181.485 317.458,182.938 317.533 M204.828 317.535 C 206.833 317.607,210.113 317.607,212.118 317.535 C 214.123 317.463,212.483 317.405,208.473 317.405 C 204.463 317.405,202.823 317.463,204.828 317.535 M318.522 317.513 C 318.901 317.612,319.522 317.612,319.901 317.513 C 320.281 317.414,319.970 317.333,319.212 317.333 C 318.453 317.333,318.143 317.414,318.522 317.513 M278.697 317.929 C 281.015 317.999,284.917 317.999,287.367 317.930 C 289.818 317.861,287.921 317.804,283.153 317.803 C 278.384 317.803,276.379 317.860,278.697 317.929 M321.970 318.030 C 322.512 318.203,323.488 318.342,324.138 318.338 L 325.320 318.330 324.138 318.030 C 323.488 317.864,322.512 317.725,321.970 317.721 L 320.985 317.714 321.970 318.030 M77.635 318.194 C 77.635 318.474,85.164 320.091,85.394 319.861 C 85.513 319.742,85.190 319.560,84.677 319.458 C 84.164 319.355,82.502 318.991,80.985 318.649 C 78.058 317.989,77.635 317.932,77.635 318.194 M261.084 318.667 C 250.668 319.882,253.335 320.660,269.662 321.171 C 276.648 321.390,284.138 321.546,286.305 321.519 C 288.473 321.491,283.330 321.228,274.877 320.933 C 253.889 320.201,252.294 319.551,268.779 318.448 L 273.300 318.145 269.557 318.130 C 267.498 318.122,263.685 318.363,261.084 318.667 M293.235 318.177 C 293.325 318.258,295.882 318.417,298.916 318.531 C 302.434 318.664,303.576 318.626,302.069 318.427 C 299.628 318.105,292.944 317.916,293.235 318.177 M327.882 319.029 C 331.220 319.717,332.731 319.686,329.655 318.992 C 328.355 318.698,326.847 318.468,326.305 318.479 C 325.764 318.491,326.473 318.739,327.882 319.029 M305.523 319.101 C 306.122 319.191,307.008 319.189,307.493 319.095 C 307.978 319.002,307.488 318.927,306.404 318.930 C 305.320 318.933,304.924 319.010,305.523 319.101 M309.951 319.629 C 310.818 319.808,311.882 319.952,312.315 319.950 L 313.103 319.945 312.315 319.606 C 311.882 319.420,310.818 319.275,309.951 319.285 L 308.374 319.302 309.951 319.629 M333.005 320.000 C 333.547 320.174,334.345 320.316,334.778 320.316 C 335.402 320.316,335.361 320.250,334.581 320.000 C 334.039 319.826,333.241 319.684,332.808 319.684 C 332.184 319.684,332.225 319.750,333.005 320.000 M87.118 320.151 C 87.213 320.244,89.942 320.525,93.181 320.776 C 99.232 321.245,100.413 321.492,99.087 322.011 C 98.375 322.290,98.381 322.311,99.180 322.337 C 101.172 322.401,102.176 320.985,100.394 320.624 C 99.183 320.378,86.902 319.941,87.118 320.151 M132.414 320.499 C 132.414 320.773,133.322 321.593,134.433 322.320 C 139.216 325.451,144.406 331.511,146.406 336.299 C 146.755 337.135,147.131 337.729,147.242 337.619 C 147.352 337.508,146.981 336.508,146.417 335.396 C 143.833 330.296,141.068 326.977,136.256 323.199 C 132.876 320.545,132.742 319.937,135.764 320.968 C 136.293 321.148,136.228 321.038,135.567 320.632 C 134.361 319.893,132.414 319.810,132.414 320.499 M316.059 320.429 C 319.677 321.103,322.095 321.242,319.212 320.610 C 317.803 320.301,316.118 320.060,315.468 320.074 C 314.567 320.093,314.708 320.177,316.059 320.429 M337.340 321.006 C 338.315 321.313,339.468 321.555,339.901 321.544 C 340.335 321.532,339.803 321.277,338.719 320.976 C 336.143 320.261,335.050 320.284,337.340 321.006 M322.956 321.576 C 323.606 321.742,324.493 321.886,324.926 321.896 L 325.714 321.915 324.926 321.576 C 324.493 321.390,323.606 321.246,322.956 321.257 L 321.773 321.276 322.956 321.576 M296.158 321.984 C 297.675 322.139,300.158 322.261,301.675 322.254 L 304.433 322.241 301.675 321.957 C 300.158 321.802,297.675 321.680,296.158 321.687 L 293.399 321.700 296.158 321.984 M340.920 321.729 C 341.180 321.971,347.148 323.550,347.689 323.520 C 348.300 323.486,342.077 321.599,341.314 321.586 C 341.007 321.581,340.829 321.645,340.920 321.729 M328.079 322.569 C 331.153 323.262,332.188 323.239,329.655 322.534 C 328.571 322.232,327.241 321.997,326.700 322.011 C 326.158 322.025,326.778 322.276,328.079 322.569 M92.217 322.967 C 90.177 323.260,89.484 323.457,90.443 323.468 C 91.310 323.479,93.438 323.256,95.172 322.973 C 99.151 322.324,96.713 322.319,92.217 322.967 M306.305 322.652 C 307.118 322.737,308.448 322.737,309.261 322.652 C 310.074 322.567,309.409 322.497,307.783 322.497 C 306.158 322.497,305.493 322.567,306.305 322.652 M312.906 323.147 C 315.195 323.487,319.063 323.651,318.785 323.397 C 318.695 323.314,316.847 323.152,314.680 323.036 C 311.831 322.884,311.340 322.915,312.906 323.147 M140.887 323.431 C 141.103 323.647,142.639 324.815,144.298 326.026 C 148.788 329.302,153.329 335.348,154.687 339.859 C 155.358 342.089,154.996 342.442,151.941 342.538 L 149.557 342.612 151.812 342.754 C 154.226 342.906,155.665 342.414,155.665 341.438 C 155.665 339.109,150.647 331.134,147.102 327.829 C 145.051 325.916,139.302 321.848,140.887 323.431 M332.808 323.562 C 333.458 323.742,334.669 324.063,335.499 324.275 C 338.147 324.951,337.636 325.225,334.187 324.978 C 332.345 324.847,329.685 324.659,328.276 324.561 L 325.714 324.384 327.882 324.715 C 332.205 325.374,337.182 325.905,338.916 325.891 L 340.690 325.876 339.310 325.151 C 337.828 324.371,333.363 323.127,332.283 323.193 C 331.922 323.215,332.158 323.381,332.808 323.562 M84.729 323.941 C 83.683 324.161,83.587 324.238,84.335 324.260 C 84.877 324.276,86.030 324.143,86.897 323.963 C 88.211 323.692,88.276 323.639,87.291 323.644 C 86.640 323.648,85.488 323.781,84.729 323.941 M321.182 323.961 C 322.158 324.135,323.576 324.268,324.335 324.256 C 325.612 324.238,325.583 324.213,323.941 323.921 C 322.966 323.747,321.547 323.614,320.788 323.625 C 319.511 323.644,319.540 323.669,321.182 323.961 M348.426 323.730 C 348.713 324.017,353.644 325.502,353.798 325.348 C 353.874 325.272,352.827 324.836,351.473 324.379 C 349.086 323.573,348.048 323.352,348.426 323.730 M63.650 325.509 C 62.628 327.129,62.248 328.266,63.191 326.886 C 64.547 324.900,65.096 323.941,64.878 323.941 C 64.747 323.941,64.195 324.647,63.650 325.509 M80.591 324.747 C 80.042 324.996,80.281 325.032,81.379 324.865 C 82.246 324.733,83.030 324.559,83.120 324.480 C 83.458 324.181,81.348 324.405,80.591 324.747 M75.312 326.341 C 74.359 326.764,73.665 327.196,73.770 327.301 C 73.875 327.405,74.477 327.253,75.108 326.961 C 75.740 326.670,76.700 326.238,77.241 326.001 C 77.783 325.764,77.961 325.571,77.635 325.572 C 77.310 325.572,76.265 325.919,75.312 326.341 M354.752 326.502 C 354.998 327.044,355.353 327.488,355.540 327.488 C 355.727 327.488,355.590 327.044,355.235 326.502 C 354.880 325.961,354.525 325.517,354.446 325.517 C 354.367 325.517,354.505 325.961,354.752 326.502 M71.315 328.776 C 70.549 329.476,69.665 330.404,69.352 330.837 C 69.039 331.271,69.401 331.057,70.155 330.362 C 70.910 329.667,71.970 328.742,72.512 328.306 C 73.054 327.870,73.320 327.511,73.103 327.508 C 72.887 327.505,72.082 328.076,71.315 328.776 M111.892 331.032 C 103.962 332.298,95.646 337.988,91.823 344.765 C 91.498 345.341,91.117 345.901,90.977 346.010 C 90.715 346.212,90.514 347.401,90.595 348.276 C 90.630 348.657,93.170 348.768,101.853 348.768 C 114.440 348.768,114.471 348.775,115.866 351.453 C 116.395 352.469,116.921 353.389,117.035 353.498 C 117.148 353.606,117.577 354.316,117.987 355.074 C 118.398 355.833,119.193 357.296,119.756 358.327 C 120.553 359.789,120.685 360.352,120.353 360.889 C 120.119 361.267,119.340 362.640,118.621 363.941 C 117.902 365.241,116.899 366.967,116.391 367.775 C 115.883 368.584,115.468 369.399,115.468 369.586 C 115.468 371.087,114.334 371.232,102.544 371.232 C 91.776 371.232,91.038 371.277,90.672 371.961 C 89.969 373.274,94.075 379.598,97.330 382.217 C 98.306 383.003,99.438 383.944,99.845 384.309 C 104.992 388.924,118.544 390.842,126.427 388.071 C 132.477 385.943,137.566 381.943,141.229 376.433 L 143.115 373.596 213.999 373.596 L 284.884 373.596 286.323 375.764 C 298.334 393.860,324.513 394.126,335.903 376.268 C 339.166 371.152,339.331 371.233,325.568 371.225 C 319.363 371.222,314.095 371.089,313.862 370.930 C 313.499 370.681,309.805 364.653,308.285 361.827 C 307.435 360.247,307.690 359.431,310.574 354.513 C 314.285 348.183,312.713 348.768,325.999 348.768 C 339.914 348.768,339.818 348.853,334.100 341.627 C 321.744 326.014,298.014 327.270,286.657 344.138 L 284.866 346.798 214.122 346.798 L 143.378 346.798 142.638 345.911 C 142.231 345.424,141.892 344.867,141.885 344.674 C 141.857 343.933,137.236 338.696,135.172 337.068 C 128.866 332.092,119.869 329.759,111.892 331.032 M124.729 332.285 C 131.233 334.168,137.119 338.464,140.961 344.132 L 142.902 346.995 214.055 347.095 L 285.207 347.194 286.708 344.927 C 299.178 326.090,326.933 326.880,336.739 346.351 C 337.738 348.335,337.632 348.354,325.142 348.467 L 313.563 348.571 312.118 350.936 C 311.324 352.236,310.086 354.365,309.368 355.665 C 308.650 356.966,307.822 358.379,307.529 358.807 C 306.704 360.008,306.807 360.310,309.800 365.439 C 314.011 372.656,312.471 372.020,325.713 372.020 C 338.432 372.020,337.959 371.869,335.919 375.275 C 325.169 393.218,298.802 393.573,287.075 375.932 L 285.260 373.202 214.016 373.202 L 142.772 373.202 141.259 375.665 C 131.743 391.150,109.621 393.637,96.574 380.690 C 93.733 377.870,90.442 373.054,90.876 372.351 C 90.989 372.169,96.275 372.020,102.622 372.020 C 115.682 372.020,114.431 372.338,116.562 368.473 C 117.220 367.281,118.484 365.067,119.371 363.553 C 121.338 360.198,121.338 360.204,119.507 357.038 C 118.695 355.632,117.695 353.847,117.287 353.072 C 116.878 352.297,116.072 350.967,115.495 350.117 L 114.445 348.571 103.035 348.472 C 89.296 348.351,90.262 348.607,91.897 345.523 C 97.665 334.637,112.372 328.707,124.729 332.285 M60.127 333.230 C 59.982 333.808,59.939 334.356,60.032 334.449 C 60.125 334.542,60.320 334.145,60.464 333.568 C 60.609 332.990,60.652 332.442,60.559 332.349 C 60.466 332.256,60.272 332.653,60.127 333.230 M67.549 334.837 C 67.192 336.737,67.194 338.142,67.573 347.192 C 67.900 355.004,67.571 357.539,65.775 361.060 C 65.353 361.886,65.097 362.562,65.206 362.562 C 65.570 362.562,66.889 359.626,67.536 357.378 C 68.250 354.897,68.383 346.979,67.802 341.478 C 67.607 339.628,67.623 337.369,67.840 336.010 C 68.251 333.443,68.000 332.434,67.549 334.837 M359.163 334.975 C 359.508 336.255,360.699 338.940,360.852 338.787 C 360.941 338.697,360.562 337.670,360.009 336.504 C 359.455 335.338,359.075 334.650,359.163 334.975 M59.599 336.158 C 59.599 336.916,59.680 337.227,59.779 336.847 C 59.878 336.468,59.878 335.847,59.779 335.468 C 59.680 335.089,59.599 335.399,59.599 336.158 M368.100 336.749 C 368.095 336.966,368.342 337.941,368.650 338.916 C 368.964 339.913,369.220 340.321,369.235 339.848 C 369.249 339.385,369.002 338.410,368.685 337.681 C 368.369 336.951,368.105 336.532,368.100 336.749 M59.248 341.084 C 59.250 342.818,59.319 343.478,59.402 342.551 C 59.486 341.624,59.484 340.206,59.400 339.398 C 59.315 338.591,59.247 339.350,59.248 341.084 M147.417 338.810 C 147.369 339.640,148.636 342.463,149.057 342.463 C 149.305 342.463,149.289 342.261,149.013 341.929 C 148.769 341.635,148.317 340.704,148.007 339.860 C 147.698 339.016,147.432 338.543,147.417 338.810 M369.509 342.069 C 370.066 345.346,370.351 346.329,370.368 345.025 C 370.376 344.374,370.134 343.133,369.829 342.266 C 369.281 340.706,369.278 340.704,369.509 342.069 M361.789 341.405 C 361.780 341.581,362.187 342.645,362.693 343.769 C 363.198 344.893,364.567 348.357,365.734 351.467 C 366.901 354.577,367.908 356.964,367.973 356.772 C 368.037 356.579,366.954 353.486,365.567 349.898 C 363.188 343.744,361.825 340.679,361.789 341.405 M59.634 347.192 C 59.634 348.601,59.705 349.177,59.792 348.473 C 59.880 347.768,59.880 346.616,59.792 345.911 C 59.705 345.207,59.634 345.783,59.634 347.192 M370.709 348.571 C 370.834 349.872,371.003 351.010,371.084 351.100 C 371.371 351.419,371.148 348.164,370.817 347.192 C 370.599 346.554,370.561 347.040,370.709 348.571 M59.990 351.133 C 59.984 351.892,60.114 353.488,60.279 354.680 L 60.579 356.847 60.605 355.074 C 60.619 354.099,60.489 352.502,60.316 351.527 C 60.027 349.902,59.999 349.869,59.990 351.133 M371.524 356.453 C 371.638 359.054,371.797 361.256,371.876 361.346 C 372.143 361.652,371.953 355.680,371.633 353.695 C 371.428 352.427,371.389 353.411,371.524 356.453 M368.079 357.653 C 368.079 358.282,370.218 364.466,370.701 365.234 C 371.395 366.339,372.029 366.031,371.992 364.607 C 371.968 363.696,371.922 363.656,371.662 364.320 C 371.224 365.439,370.362 363.982,369.279 360.296 C 368.567 357.872,368.079 356.797,368.079 357.653 M145.973 358.379 C 145.857 358.679,145.819 359.699,145.886 360.645 L 146.010 362.365 213.751 362.464 C 263.493 362.537,281.635 362.446,282.027 362.120 C 282.577 361.664,282.746 359.561,282.322 358.456 C 281.982 357.568,146.313 357.491,145.973 358.379 M60.878 361.738 C 61.075 366.217,61.693 367.298,63.154 365.716 L 64.039 364.758 63.129 365.516 C 61.903 366.536,61.599 365.987,61.284 362.187 C 60.917 357.761,60.693 357.513,60.878 361.738 M282.091 360.085 C 282.256 362.366,288.048 362.198,213.399 362.078 L 146.404 361.970 146.278 360.652 C 146.208 359.927,146.247 359.084,146.364 358.779 C 146.546 358.305,156.371 358.239,214.274 358.324 L 281.970 358.424 282.091 360.085 " stroke="none" fill="#db9a9e" fill-rule="evenodd"></path><path id="path3" d="M173.005 22.446 C 169.360 23.114,165.943 23.992,164.532 24.621 C 160.482 26.428,155.914 28.772,154.680 29.676 C 151.590 31.939,146.819 36.154,145.315 37.949 C 144.397 39.045,143.104 40.576,142.442 41.351 C 141.261 42.733,139.827 44.951,137.836 48.473 C 127.681 66.443,132.384 93.497,148.044 107.185 C 154.346 112.694,158.653 115.355,164.964 117.639 C 172.063 120.209,173.268 120.321,196.453 120.567 C 217.113 120.786,217.357 120.798,218.916 121.666 C 226.621 125.956,226.401 135.968,218.522 139.560 C 217.108 140.204,215.707 140.279,204.910 140.287 C 180.555 140.304,166.648 144.330,151.330 155.797 C 139.507 164.647,129.444 177.009,132.201 179.297 C 132.931 179.903,214.965 180.649,219.375 180.090 C 226.205 179.224,232.993 177.349,236.581 175.336 C 236.976 175.114,238.040 174.555,238.945 174.093 C 261.278 162.698,270.934 132.613,259.783 109.163 C 254.066 97.139,240.675 85.749,228.966 82.951 C 227.340 82.563,225.300 81.978,224.433 81.651 C 223.126 81.158,219.087 81.017,200.788 80.824 L 178.719 80.591 176.899 79.327 C 170.963 75.205,170.848 67.687,176.648 63.024 L 178.325 61.675 192.315 61.421 C 205.255 61.186,206.685 61.089,211.362 60.140 C 214.143 59.575,216.763 59.113,217.185 59.113 C 217.606 59.113,218.966 58.743,220.207 58.290 C 221.448 57.838,223.376 57.216,224.491 56.909 C 229.199 55.614,236.424 51.890,243.982 46.861 C 254.868 39.620,267.805 24.526,265.276 22.017 C 265.138 21.880,245.695 21.668,222.069 21.547 L 179.113 21.327 173.005 22.446 M259.424 22.960 C 265.611 23.097,265.632 23.419,259.923 30.487 C 252.265 39.967,243.837 46.785,233.085 52.196 C 231.125 53.183,229.283 53.990,228.994 53.990 C 228.704 53.990,227.914 54.330,227.239 54.745 C 226.563 55.161,224.857 55.789,223.448 56.141 C 222.039 56.493,220.053 57.130,219.035 57.555 C 218.017 57.981,215.387 58.514,213.190 58.739 C 210.994 58.965,208.369 59.332,207.357 59.556 C 206.345 59.780,199.576 60.096,192.315 60.258 C 176.676 60.607,176.698 60.601,173.015 65.330 C 171.011 67.901,170.893 74.172,172.801 76.681 C 176.892 82.061,175.239 81.735,199.803 82.007 L 220.887 82.241 225.419 83.298 C 241.867 87.137,258.655 102.382,261.114 115.714 C 261.269 116.554,261.646 117.951,261.953 118.818 C 262.997 121.773,263.276 124.331,263.268 130.855 C 263.260 137.525,263.262 137.515,261.113 145.512 C 257.024 160.728,241.201 174.662,224.236 177.986 C 220.644 178.690,136.330 178.954,133.892 178.269 C 132.122 177.772,133.693 174.979,139.511 168.276 C 151.175 154.839,170.486 144.119,185.683 142.644 C 187.705 142.448,190.601 142.133,192.118 141.945 C 193.635 141.757,199.576 141.682,205.320 141.778 C 217.631 141.984,219.016 141.704,222.293 138.349 C 228.216 132.285,226.651 124.311,218.719 120.144 L 216.946 119.212 194.680 118.976 C 180.444 118.826,171.916 118.587,171.034 118.313 C 161.961 115.499,158.023 113.632,152.906 109.720 C 145.137 103.780,138.927 95.320,136.152 86.897 C 135.795 85.813,135.215 84.039,134.863 82.956 C 134.342 81.352,134.223 79.153,134.223 71.133 C 134.223 60.844,134.151 61.433,136.154 55.369 C 138.799 47.364,146.073 37.234,152.548 32.541 C 156.587 29.614,158.380 28.442,159.229 28.175 C 159.762 28.008,160.609 27.551,161.112 27.158 C 161.615 26.765,163.033 26.152,164.264 25.795 C 165.495 25.439,166.680 25.010,166.897 24.842 C 169.345 22.944,176.638 22.648,218.128 22.763 C 238.502 22.820,257.086 22.909,259.424 22.960 M96.749 203.312 C 93.225 204.817,93.355 203.672,93.484 231.988 L 93.596 256.489 94.558 257.512 C 96.146 259.202,98.063 259.561,100.061 258.541 C 102.988 257.048,102.888 258.081,102.767 230.540 L 102.660 206.121 101.281 204.744 C 99.834 203.300,98.078 202.745,96.749 203.312 M209.032 203.337 C 208.581 203.520,207.738 204.232,207.160 204.919 L 206.108 206.169 206.108 231.189 C 206.108 257.999,206.041 257.151,208.288 258.477 C 210.465 259.762,211.994 259.577,213.925 257.795 L 215.567 256.279 215.567 231.382 L 215.567 206.485 213.940 204.720 C 212.255 202.892,211.004 202.540,209.032 203.337 M245.714 203.334 C 241.417 205.123,241.788 210.737,246.289 212.050 C 248.712 212.757,295.937 212.362,297.055 211.626 C 299.737 209.859,299.937 206.551,297.495 204.344 L 295.958 202.956 271.230 202.981 C 257.630 202.994,246.148 203.153,245.714 203.334 M347.192 203.216 C 343.787 204.565,343.384 208.787,346.227 213.328 C 346.794 214.234,347.864 215.945,348.605 217.130 C 349.345 218.314,349.951 219.450,349.951 219.654 C 349.951 219.858,350.378 220.584,350.900 221.269 C 351.422 221.953,352.134 223.123,352.481 223.867 C 352.829 224.612,353.824 226.374,354.694 227.783 C 355.563 229.192,356.556 230.964,356.901 231.721 C 357.246 232.478,357.952 233.600,358.469 234.214 C 358.986 234.829,359.409 235.543,359.409 235.801 C 359.409 236.059,359.891 236.976,360.480 237.840 C 361.651 239.555,362.848 241.652,364.124 244.220 C 364.578 245.132,365.141 245.997,365.375 246.143 C 365.610 246.288,366.216 247.343,366.723 248.487 C 367.229 249.632,367.824 250.680,368.047 250.818 C 368.269 250.955,368.814 251.813,369.259 252.726 C 372.581 259.541,375.738 261.073,379.241 257.570 C 381.032 255.779,381.008 254.849,379.073 251.132 C 375.967 245.166,375.771 244.817,375.113 244.079 C 374.755 243.678,374.183 242.729,373.841 241.970 C 373.500 241.212,372.511 239.438,371.645 238.030 C 370.779 236.621,369.759 234.847,369.379 234.089 C 368.998 233.330,368.284 232.208,367.792 231.595 C 367.299 230.983,366.897 230.256,366.897 229.980 C 366.897 229.704,366.408 228.786,365.811 227.941 C 365.215 227.096,364.402 225.783,364.006 225.025 C 362.512 222.165,361.518 220.444,360.480 218.923 C 359.891 218.060,359.409 217.153,359.409 216.907 C 359.409 216.662,359.035 215.985,358.577 215.404 C 358.120 214.823,357.348 213.602,356.861 212.691 C 356.374 211.780,355.462 210.074,354.835 208.900 C 352.490 204.512,349.512 202.297,347.192 203.216 M295.772 204.573 C 298.166 205.723,298.521 208.313,296.554 210.280 L 295.602 211.232 271.042 211.232 C 243.895 211.232,245.451 211.380,244.160 208.660 C 243.160 206.554,244.506 204.803,247.613 204.168 C 250.229 203.633,294.593 204.006,295.772 204.573 M49.310 204.548 C 44.660 205.592,44.705 210.696,49.383 212.985 C 56.961 216.693,62.991 215.200,61.972 209.869 C 61.409 206.924,53.512 203.606,49.310 204.548 M213.202 205.349 L 214.581 206.527 214.581 231.178 L 214.581 255.828 213.294 256.978 C 211.563 258.525,208.407 258.225,207.198 256.398 C 207.039 256.158,206.906 244.845,206.903 231.260 L 206.897 206.560 208.366 205.349 C 210.197 203.839,211.436 203.839,213.202 205.349 M351.288 205.889 C 352.224 206.853,353.464 208.582,354.043 209.732 C 354.622 210.882,355.800 212.975,356.661 214.384 C 357.521 215.793,358.595 217.690,359.048 218.601 C 359.501 219.511,360.122 220.464,360.428 220.718 C 360.734 220.972,360.985 221.394,360.985 221.656 C 360.985 221.917,361.541 222.970,362.220 223.996 C 362.900 225.021,363.831 226.548,364.289 227.388 C 365.455 229.525,367.095 232.331,368.667 234.877 C 369.402 236.069,370.471 237.975,371.041 239.113 C 371.611 240.251,372.228 241.182,372.412 241.182 C 372.596 241.182,372.948 241.791,373.193 242.535 C 373.439 243.278,374.162 244.544,374.800 245.347 C 375.438 246.151,375.961 247.036,375.961 247.315 C 375.961 247.593,376.370 248.323,376.871 248.935 C 379.356 251.976,379.979 255.352,378.355 256.976 C 376.314 259.017,373.018 258.243,371.905 255.461 C 371.572 254.627,371.037 253.728,370.716 253.462 C 370.396 253.196,369.904 252.408,369.623 251.711 C 369.342 251.014,368.723 249.911,368.247 249.261 C 367.771 248.611,367.271 247.711,367.135 247.262 C 366.999 246.812,366.573 246.103,366.188 245.685 C 365.803 245.268,365.244 244.305,364.945 243.547 C 364.647 242.788,364.182 241.901,363.912 241.576 C 363.642 241.251,362.984 240.187,362.450 239.212 C 361.150 236.839,359.249 233.580,357.620 230.936 C 356.886 229.744,355.831 227.882,355.275 226.798 C 354.719 225.714,353.570 223.675,352.721 222.266 C 351.872 220.857,350.792 218.948,350.321 218.025 C 349.850 217.101,349.313 216.251,349.128 216.136 C 348.943 216.022,348.431 215.182,347.990 214.269 C 347.550 213.357,346.836 212.063,346.404 211.394 C 343.221 206.465,347.338 201.825,351.288 205.889 M27.534 205.078 C 14.535 209.723,12.547 225.190,24.037 232.282 C 25.267 233.041,27.145 233.856,28.210 234.093 C 29.276 234.330,30.946 234.798,31.921 235.133 C 33.077 235.530,36.357 235.869,41.343 236.107 C 49.740 236.508,51.233 236.934,53.863 239.679 C 56.507 242.438,54.751 247.011,50.490 248.463 C 47.875 249.354,45.714 251.594,45.714 253.413 C 45.714 256.999,50.532 259.261,54.036 257.320 C 54.603 257.006,55.952 256.271,57.034 255.687 C 66.313 250.678,67.333 237.548,58.925 231.337 C 54.674 228.196,50.012 226.968,40.971 226.608 L 33.271 226.301 30.437 224.874 C 24.471 221.869,24.418 217.195,30.316 214.136 C 34.820 211.799,36.137 209.804,34.898 207.193 C 33.735 204.742,30.819 203.904,27.534 205.078 M99.490 204.777 C 101.255 205.454,101.282 205.852,101.268 231.606 C 101.255 257.324,101.301 256.676,99.435 257.670 C 98.103 258.379,97.000 258.218,95.943 257.161 L 94.975 256.193 94.975 231.401 C 94.975 206.916,94.985 206.596,95.792 205.570 C 96.604 204.538,98.056 204.226,99.490 204.777 M165.320 205.204 C 160.965 206.278,161.283 212.414,165.815 214.745 C 166.303 214.996,167.881 216.082,169.319 217.158 C 176.420 222.465,181.628 215.089,174.741 209.479 C 170.807 206.274,167.347 204.705,165.320 205.204 M33.207 206.569 C 35.171 208.891,34.366 210.482,29.936 213.037 C 24.258 216.312,23.678 222.214,28.745 225.171 C 31.996 227.069,31.926 227.055,39.914 227.389 C 55.841 228.055,63.518 233.040,63.583 242.759 C 63.633 250.222,53.033 260.335,48.816 256.847 C 45.680 254.253,46.723 251.175,51.458 249.051 C 56.942 246.590,57.843 241.021,53.297 237.686 C 50.856 235.897,50.008 235.696,43.153 235.287 C 36.489 234.890,27.525 233.254,26.002 232.156 C 25.456 231.763,24.617 231.316,24.137 231.164 C 18.811 229.474,15.625 219.728,18.579 214.159 C 21.928 207.841,30.515 203.386,33.207 206.569 M57.266 207.006 C 61.669 209.330,62.249 211.968,58.755 213.774 C 56.764 214.804,49.482 212.442,47.712 210.192 C 44.525 206.140,51.329 203.871,57.266 207.006 M143.108 206.409 C 134.002 211.055,128.699 220.154,128.698 231.133 L 128.697 237.438 130.170 241.146 C 133.346 249.141,141.984 257.340,147.231 257.340 C 151.935 257.340,153.177 250.650,148.884 248.431 C 134.919 241.213,134.210 222.293,147.621 214.724 C 155.185 210.456,150.846 202.461,143.108 206.409 M148.996 207.260 C 151.094 209.359,150.058 212.227,146.555 214.013 C 133.084 220.886,133.786 242.684,147.676 248.846 C 153.388 251.380,150.096 257.474,144.181 255.318 C 133.378 251.379,126.698 234.482,131.113 222.263 C 134.649 212.476,145.287 203.552,148.996 207.260 M170.018 207.517 C 176.457 211.400,178.168 214.293,175.650 217.044 C 174.365 218.448,172.683 218.209,169.994 216.241 C 168.724 215.312,167.004 214.135,166.172 213.626 C 163.887 212.228,163.151 211.262,163.165 209.679 C 163.197 206.120,166.154 205.187,170.018 207.517 M269.245 223.317 C 266.303 224.767,266.403 224.140,266.410 241.137 C 266.413 249.507,266.546 256.554,266.706 256.797 C 268.902 260.156,274.434 259.507,275.473 255.769 C 276.222 253.071,275.964 227.398,275.172 225.821 C 273.841 223.171,271.526 222.193,269.245 223.317 M334.559 223.551 C 333.369 224.352,329.612 229.867,328.049 233.103 C 327.736 233.754,326.783 235.438,325.933 236.847 C 325.082 238.256,323.782 240.473,323.043 241.773 C 322.304 243.074,320.519 246.200,319.076 248.721 C 315.592 254.809,315.518 256.209,318.577 258.275 C 321.629 260.336,324.186 258.996,326.951 253.885 C 327.976 251.992,329.415 249.867,330.149 249.163 L 331.485 247.882 338.846 247.881 C 348.131 247.880,350.424 246.926,350.424 243.063 C 350.424 239.408,348.692 238.429,342.216 238.426 C 337.117 238.423,336.042 237.146,338.497 234.009 C 339.821 232.317,341.675 228.205,341.675 226.960 C 341.675 223.735,337.356 221.666,334.559 223.551 M338.494 224.419 C 340.801 225.612,340.666 227.594,337.931 232.692 C 334.631 238.844,334.618 238.825,342.324 239.194 C 348.013 239.467,348.531 239.669,349.133 241.850 C 350.191 245.681,348.563 246.453,338.904 246.700 C 329.616 246.936,327.155 248.512,324.600 255.860 C 323.886 257.915,320.643 258.619,318.848 257.108 C 317.222 255.739,317.275 254.280,319.070 251.034 C 319.850 249.626,320.927 247.675,321.464 246.700 C 322.001 245.724,322.615 244.714,322.827 244.455 C 323.255 243.933,324.646 241.443,325.865 239.015 C 326.301 238.148,327.110 236.828,327.663 236.081 C 328.217 235.335,328.670 234.546,328.670 234.329 C 328.670 234.112,329.089 233.304,329.601 232.533 C 330.113 231.763,331.310 229.766,332.261 228.096 C 334.502 224.160,336.132 223.198,338.494 224.419 M273.318 225.204 L 274.286 226.171 274.286 240.998 L 274.286 255.824 273.134 256.976 C 271.705 258.405,270.388 258.445,268.799 257.108 L 267.586 256.088 267.586 241.129 L 267.586 226.171 268.554 225.204 C 269.221 224.536,269.959 224.236,270.936 224.236 C 271.913 224.236,272.651 224.536,273.318 225.204 M170.161 244.634 C 168.415 246.101,165.548 248.017,164.299 248.552 C 162.320 249.401,161.417 252.761,162.568 254.988 C 163.897 257.557,166.765 257.970,170.154 256.079 C 177.061 252.225,179.181 249.126,177.357 245.550 C 176.111 243.109,172.522 242.652,170.161 244.634 M175.917 244.939 C 179.985 249.007,168.778 258.949,164.191 255.341 C 162.215 253.786,163.137 249.608,165.626 248.840 C 166.548 248.556,169.948 246.199,171.129 245.025 C 172.016 244.143,175.067 244.089,175.917 244.939 M18.609 247.954 C 16.229 249.783,15.896 252.671,17.853 254.507 C 20.802 257.275,30.148 259.444,32.850 257.989 C 38.035 255.197,34.822 249.545,27.451 248.490 C 26.402 248.340,24.747 247.875,23.773 247.458 C 21.346 246.418,20.503 246.498,18.609 247.954 M24.507 248.682 C 32.467 250.122,36.055 253.273,33.332 256.431 C 30.586 259.616,17.371 255.456,17.346 251.399 C 17.337 249.862,20.161 247.634,21.552 248.082 C 21.809 248.164,23.139 248.435,24.507 248.682 M112.906 331.424 C 106.616 332.274,101.206 335.008,96.552 339.690 C 93.395 342.865,90.293 347.501,90.911 348.119 C 91.051 348.260,96.340 348.374,102.665 348.374 C 115.594 348.374,114.402 348.092,116.446 351.643 C 117.045 352.683,117.612 353.456,117.706 353.361 C 117.942 353.125,115.489 349.083,114.740 348.473 C 114.287 348.104,111.279 347.980,102.782 347.980 C 89.796 347.980,90.499 348.243,93.105 344.366 C 104.436 327.515,129.550 327.431,140.492 344.206 C 141.581 345.877,142.814 347.311,143.250 347.415 C 143.684 347.520,175.872 347.556,214.778 347.497 L 285.517 347.389 287.054 345.025 C 289.927 340.605,294.116 336.886,298.747 334.647 C 302.807 332.684,303.625 332.474,311.921 331.266 C 312.571 331.171,311.596 331.180,309.754 331.287 C 299.968 331.851,292.399 336.331,286.708 344.927 L 285.207 347.194 214.055 347.095 L 142.902 346.995 140.961 344.132 C 134.744 334.960,123.714 329.963,112.906 331.424 M316.453 332.077 C 323.940 333.363,332.793 339.537,335.872 345.622 L 336.966 347.783 325.166 347.980 C 318.675 348.089,313.280 348.266,313.176 348.374 C 312.618 348.956,306.936 358.949,306.750 359.677 C 306.453 360.833,312.379 371.227,313.726 371.915 C 314.424 372.271,317.434 372.381,324.926 372.322 L 335.172 372.242 324.690 372.032 C 312.430 371.787,313.949 372.441,309.993 365.711 C 306.798 360.276,306.703 360.009,307.529 358.807 C 307.822 358.379,308.650 356.966,309.368 355.665 C 310.086 354.365,311.324 352.236,312.118 350.936 L 313.563 348.571 325.142 348.467 C 337.632 348.354,337.738 348.335,336.739 346.351 C 332.821 338.571,321.999 331.287,314.623 331.465 C 313.575 331.491,314.143 331.680,316.453 332.077 M117.833 354.045 C 117.833 354.129,118.542 355.412,119.409 356.896 C 121.392 360.290,121.406 360.117,118.818 364.497 C 117.626 366.514,116.650 368.253,116.650 368.360 C 116.650 368.468,116.102 369.379,115.433 370.386 C 114.763 371.393,114.570 371.862,115.005 371.429 C 115.671 370.764,119.016 365.240,120.853 361.773 C 121.655 360.258,121.508 359.566,119.758 356.621 C 118.315 354.191,117.833 353.546,117.833 354.045 M146.286 357.458 C 145.457 357.791,145.391 358.029,145.498 360.290 L 145.616 362.759 213.751 362.858 C 263.784 362.931,282.029 362.840,282.421 362.514 C 283.349 361.744,283.113 358.381,282.080 357.658 C 281.061 356.944,148.055 356.748,146.286 357.458 M282.322 358.456 C 282.746 359.561,282.577 361.664,282.027 362.120 C 281.635 362.446,263.493 362.537,213.751 362.464 L 146.010 362.365 145.886 360.645 C 145.819 359.699,145.857 358.679,145.973 358.379 C 146.313 357.491,281.982 357.568,282.322 358.456 M90.876 372.351 C 90.442 373.054,93.733 377.870,96.574 380.690 C 109.621 393.637,131.743 391.150,141.259 375.665 L 142.772 373.202 214.016 373.202 L 285.260 373.202 287.075 375.932 C 297.160 391.102,318.576 393.538,331.215 380.952 C 335.894 376.292,338.335 371.960,336.233 372.047 C 335.628 372.073,335.630 372.100,336.258 372.349 C 337.251 372.742,334.753 376.919,331.626 380.098 C 318.885 393.047,297.386 390.936,287.503 375.764 C 286.656 374.463,285.774 373.268,285.543 373.109 C 285.312 372.949,253.027 372.861,213.798 372.912 L 142.474 373.005 140.799 375.567 C 132.161 388.781,115.205 392.485,101.416 384.171 C 97.074 381.552,90.402 373.306,91.872 372.375 C 92.304 372.102,92.278 372.031,91.747 372.026 C 91.381 372.022,90.989 372.169,90.876 372.351 M97.833 372.314 C 100.813 372.381,105.690 372.381,108.670 372.314 C 111.650 372.247,109.212 372.193,103.251 372.193 C 97.291 372.193,94.852 372.247,97.833 372.314 " stroke="none" fill="#de7c7c" fill-rule="evenodd"></path><path id="path4" d="M185.025 277.272 C 178.116 277.934,174.632 278.339,171.232 278.875 C 157.495 281.039,141.828 285.117,124.398 291.066 C 115.075 294.247,106.645 297.034,101.281 298.709 C 98.355 299.622,95.517 300.519,94.975 300.701 C 90.945 302.055,81.577 304.328,74.089 305.769 C 70.288 306.500,62.579 307.389,60.042 307.389 C 57.415 307.389,55.567 307.886,55.567 308.593 C 55.567 309.491,60.594 316.333,63.215 319.002 C 66.261 322.102,66.260 322.098,64.420 324.974 C 60.059 331.791,58.944 337.199,59.882 346.995 C 60.131 349.596,60.499 353.675,60.700 356.059 C 61.694 367.869,61.849 368.110,64.914 362.631 C 67.714 357.623,68.426 351.650,67.392 341.839 C 66.066 329.252,71.033 325.501,92.414 322.947 C 100.903 321.933,101.804 321.456,96.061 321.015 C 83.206 320.028,74.962 318.199,70.659 315.379 C 69.257 314.461,69.827 314.211,75.870 313.096 C 86.046 311.219,94.970 308.721,113.103 302.677 C 129.137 297.332,136.836 294.885,144.709 292.633 C 180.169 282.488,210.251 282.749,238.002 293.443 C 241.598 294.829,241.612 294.835,246.838 297.302 C 249.406 298.515,251.668 299.507,251.862 299.507 C 252.057 299.507,252.217 299.729,252.216 300.000 C 252.216 300.375,250.262 300.520,244.063 300.605 C 233.932 300.745,233.160 301.150,236.653 304.497 C 238.608 306.371,240.622 307.374,242.511 307.417 C 243.189 307.432,244.099 307.584,244.532 307.755 C 248.336 309.253,197.200 312.117,166.624 312.118 C 154.878 312.118,153.111 312.329,155.748 313.418 C 163.717 316.708,194.734 318.350,221.084 316.877 C 230.987 316.324,247.192 315.436,258.522 314.827 C 279.448 313.701,301.800 314.483,316.650 316.861 C 317.951 317.069,321.320 317.605,324.138 318.052 C 326.956 318.499,331.300 319.317,333.793 319.868 C 336.286 320.420,339.123 321.047,340.099 321.261 C 343.503 322.008,352.757 324.733,353.904 325.327 C 355.994 326.407,364.291 345.128,368.898 359.156 C 371.465 366.974,372.232 366.626,371.611 357.926 C 370.411 341.137,364.558 323.391,358.909 319.416 C 357.613 318.504,346.581 315.375,340.099 314.081 C 339.123 313.887,336.286 313.291,333.793 312.758 C 322.088 310.254,306.272 308.145,289.261 306.818 C 275.100 305.714,276.478 306.075,270.145 301.813 C 262.179 296.451,259.737 295.022,251.034 290.632 C 237.713 283.911,225.830 280.229,210.246 277.993 C 206.511 277.457,188.471 276.941,185.025 277.272 M259.347 303.941 C 262.339 305.787,262.551 306.342,260.334 306.528 C 258.484 306.683,257.063 305.796,256.322 304.021 C 255.351 301.697,255.695 301.688,259.347 303.941 M268.779 318.448 C 251.643 319.595,253.711 320.169,277.833 320.961 C 300.060 321.690,314.124 322.654,327.882 324.390 C 343.181 326.320,337.388 324.134,318.424 320.820 C 304.759 318.433,283.902 317.436,268.779 318.448 M133.596 320.752 C 133.596 320.949,134.793 322.050,136.256 323.199 C 142.135 327.814,146.035 333.110,147.659 338.683 C 148.670 342.151,149.017 342.463,151.851 342.463 C 154.980 342.463,155.365 342.112,154.691 339.873 C 152.646 333.077,145.339 325.431,137.370 321.750 C 134.318 320.340,133.596 320.149,133.596 320.752 " stroke="none" fill="#76808e" fill-rule="evenodd"></path></g></svg>