<?xml version="1.0" standalone="no"?>
<!DOCTYPE svg PUBLIC "-//W3C//DTD SVG 20010904//EN"
 "http://www.w3.org/TR/2001/REC-SVG-20010904/DTD/svg10.dtd">
<svg version="1.0" xmlns="http://www.w3.org/2000/svg"
 width="401.000000pt" height="395.000000pt" viewBox="0 0 401.000000 395.000000"
 preserveAspectRatio="xMidYMid meet">
<metadata>
Created by potrace 1.16, written by Peter Selinger 2001-2019
</metadata>
<g transform="translate(0.000000,395.000000) scale(0.100000,-0.100000)"
fill="#000000" stroke="none">
<path d="M1765 3719 c-179 -17 -338 -145 -402 -324 -22 -64 -25 -239 -4 -305
31 -96 116 -205 202 -260 97 -63 143 -72 369 -72 113 0 222 -4 242 -9 84 -21
114 -113 59 -179 l-29 -35 -183 -7 c-244 -9 -351 -41 -495 -148 -87 -65 -207
-200 -192 -215 2 -3 206 -5 454 -5 423 -1 453 0 514 19 79 25 141 63 202 125
265 268 130 723 -238 811 -41 10 -124 14 -266 15 l-207 0 -36 31 c-30 27 -35
37 -35 74 0 34 6 50 29 74 29 31 29 31 138 31 301 1 497 73 668 247 49 49 101
120 94 127 -7 7 -820 11 -884 5z"/>
<path d="M2087 1892 c-15 -16 -17 -50 -17 -266 l0 -246 25 -12 c19 -8 28 -8
40 2 13 11 15 51 15 266 0 240 -1 254 -19 264 -25 13 -25 13 -44 -8z"/>
<path d="M2457 1892 c-21 -23 -21 -27 -1 -46 13 -14 51 -16 264 -16 242 0 250
1 260 21 9 16 8 25 -6 40 -16 18 -33 19 -259 19 -222 0 -243 -2 -258 -18z"/>
<path d="M3477 1898 c-21 -11 -22 -46 -3 -73 13 -19 20 -32 79 -137 14 -25 37
-64 51 -87 14 -22 26 -43 26 -46 0 -3 23 -42 50 -86 28 -44 50 -84 50 -89 0
-12 34 -22 53 -14 31 11 27 37 -15 108 -23 39 -51 87 -62 106 -10 19 -27 47
-37 62 -11 14 -19 28 -19 31 0 14 -132 226 -143 230 -7 3 -21 1 -30 -5z"/>
<path d="M955 1887 c-3 -7 -4 -124 -3 -261 3 -228 5 -250 21 -260 15 -9 21 -7
33 8 19 26 21 495 2 514 -16 16 -47 15 -53 -1z"/>
<path d="M242 1867 c-92 -62 -94 -174 -4 -231 42 -26 132 -46 205 -46 65 0
117 -30 117 -68 0 -36 -12 -53 -52 -71 -37 -18 -48 -50 -24 -70 44 -37 156 58
156 132 0 31 -24 90 -44 106 -32 27 -122 51 -191 51 -98 0 -139 22 -143 78 -3
36 1 43 25 58 54 34 63 45 52 65 -13 25 -56 23 -97 -4z"/>
<path d="M477 1883 c-26 -25 9 -61 76 -77 57 -14 79 42 27 69 -30 15 -91 20
-103 8z"/>
<path d="M1438 1874 c-42 -22 -113 -108 -126 -152 -20 -67 -15 -147 14 -207
41 -89 137 -156 172 -122 15 15 9 57 -8 57 -20 0 -84 67 -101 105 -37 81 -12
180 60 232 38 29 61 52 61 64 0 10 -30 39 -38 38 -4 -1 -19 -7 -34 -15z"/>
<path d="M1646 1874 c-9 -8 -16 -19 -16 -23 0 -13 24 -36 67 -65 35 -24 45
-26 58 -16 29 24 18 56 -32 89 -54 36 -56 36 -77 15z"/>
<path d="M2696 1697 c-14 -11 -16 -32 -14 -166 3 -131 6 -155 20 -164 12 -8
21 -7 32 2 13 11 16 39 16 167 0 139 -2 154 -19 163 -13 7 -23 7 -35 -2z"/>
<path d="M3358 1698 c-16 -12 -106 -160 -158 -260 -23 -44 -23 -49 -8 -64 22
-23 50 -11 73 33 31 58 41 63 109 63 35 0 77 5 95 11 27 9 32 16 29 38 -3 24
-7 26 -60 31 -31 3 -60 8 -64 13 -4 4 3 30 16 58 18 37 21 55 14 67 -14 22
-27 25 -46 10z"/>
<path d="M1695 1480 c-10 -11 -26 -22 -36 -25 -25 -8 -35 -44 -16 -62 33 -33
127 25 127 78 0 25 -4 29 -28 29 -16 0 -37 -9 -47 -20z"/>
<path d="M188 1450 c-20 -15 -21 -20 -8 -35 48 -58 187 -61 164 -2 -6 16 -35
30 -96 46 -31 8 -42 6 -60 -9z"/>
<path d="M1790 1164 c-169 -21 -308 -58 -651 -169 -242 -79 -424 -124 -507
-126 -76 -1 -79 -8 -28 -77 25 -34 51 -62 56 -62 6 0 -4 -26 -22 -57 -33 -58
-33 -59 -31 -183 1 -69 6 -145 10 -169 l8 -43 25 43 c23 41 25 54 25 170 0
113 2 129 20 149 32 36 95 59 200 72 l98 12 -103 13 c-64 8 -123 22 -154 37
-58 27 -61 25 84 56 58 12 213 57 346 101 413 134 541 161 769 161 165 0 248
-13 400 -63 102 -34 307 -137 299 -150 -11 -19 -44 -7 -68 24 l-25 32 -87 -2
c-48 -2 -90 -6 -93 -9 -12 -12 51 -54 82 -54 23 -1 28 -3 17 -9 -25 -14 -310
-32 -614 -38 -158 -3 -282 -9 -275 -13 68 -36 432 -45 874 -21 436 24 720 6
979 -60 137 -35 138 -35 181 -135 21 -49 56 -134 76 -189 l38 -100 1 58 c0 91
-27 204 -73 297 -42 85 -42 85 -97 103 -136 43 -449 95 -689 113 -94 7 -96 8
-181 63 -153 101 -315 170 -482 207 -71 16 -333 27 -408 18z"/>
<path d="M2645 751 c-35 -4 11 -9 155 -14 113 -5 252 -13 310 -18 231 -20 227
-19 195 -9 -108 33 -526 60 -660 41z"/>
<path d="M1405 677 c35 -36 59 -71 71 -105 16 -46 22 -52 46 -52 16 0 28 5 28
10 0 23 -40 87 -77 123 -32 33 -100 77 -117 77 -3 0 19 -24 49 -53z"/>
<path d="M1095 617 c-79 -26 -142 -74 -171 -129 l-14 -27 122 -3 122 -3 33
-57 33 -57 -35 -60 -36 -61 -120 0 -120 0 18 -31 c68 -116 231 -166 360 -110
49 22 133 98 133 121 0 7 237 10 723 10 l722 -1 28 -40 c57 -83 179 -131 278
-110 87 19 162 70 195 133 l15 28 -120 0 -120 0 -34 61 -35 62 33 56 33 56
121 3 121 3 -14 27 c-20 38 -73 86 -126 113 -67 34 -176 33 -246 -3 -48 -25
-124 -97 -124 -118 0 -7 -247 -10 -717 -10 l-718 0 -47 54 c-26 30 -67 63 -93
75 -58 27 -147 35 -200 18z m1739 -262 c3 -8 3 -22 0 -30 -5 -13 -91 -15 -690
-15 l-684 0 0 30 0 30 684 0 c599 0 685 -2 690 -15z"/>
</g>
</svg>
